solid Default
  facet normal 0.000000e+00 -1.000000e+00 0.000000e+00
    outer loop
      vertex 7.999990e+00 -2.000000e+01 1.499997e+00
      vertex 1.115430e+00 -2.000000e+01 1.499997e+00
      vertex 3.160714e+00 -2.000000e+01 0.000000e+00
    endloop
  endfacet
  facet normal 0.000000e+00 -1.000000e+00 0.000000e+00
    outer loop
      vertex 1.115430e+00 -2.000000e+01 1.499997e+00
      vertex -8.000002e+00 -2.000000e+01 1.499997e+00
      vertex 3.160714e+00 -2.000000e+01 0.000000e+00
    endloop
  endfacet
  facet normal 0.000000e+00 -1.000000e+00 0.000000e+00
    outer loop
      vertex -8.000002e+00 -2.000000e+01 1.499997e+00
      vertex -9.999989e+00 -2.000000e+01 4.499991e+00
      vertex -9.999989e+00 -2.000000e+01 0.000000e+00
    endloop
  endfacet
  facet normal 0.000000e+00 -1.000000e+00 0.000000e+00
    outer loop
      vertex -9.999989e+00 -2.000000e+01 4.499991e+00
      vertex -8.000002e+00 -2.000000e+01 1.499997e+00
      vertex -8.000002e+00 -2.000000e+01 2.999994e+00
    endloop
  endfacet
  facet normal 0.000000e+00 -1.000000e+00 0.000000e+00
    outer loop
      vertex -9.999989e+00 -2.000000e+01 0.000000e+00
      vertex 3.160714e+00 -2.000000e+01 0.000000e+00
      vertex -8.000002e+00 -2.000000e+01 1.499997e+00
    endloop
  endfacet
  facet normal -1.000000e+00 0.000000e+00 0.000000e+00
    outer loop
      vertex -9.999989e+00 2.000000e+01 4.499991e+00
      vertex -9.999989e+00 2.000000e+01 0.000000e+00
      vertex -9.999989e+00 1.440986e+01 0.000000e+00
    endloop
  endfacet
  facet normal -1.000000e+00 0.000000e+00 0.000000e+00
    outer loop
      vertex -9.999989e+00 2.000000e+01 4.499991e+00
      vertex -9.999989e+00 1.440986e+01 0.000000e+00
      vertex -9.999989e+00 9.970867e+00 4.499991e+00
    endloop
  endfacet
  facet normal -1.000000e+00 0.000000e+00 0.000000e+00
    outer loop
      vertex -9.999989e+00 1.440986e+01 0.000000e+00
      vertex -9.999989e+00 3.326287e+00 4.499991e+00
      vertex -9.999989e+00 9.970867e+00 4.499991e+00
    endloop
  endfacet
  facet normal -1.000000e+00 0.000000e+00 0.000000e+00
    outer loop
      vertex -9.999989e+00 3.326287e+00 4.499991e+00
      vertex -9.999989e+00 1.440986e+01 0.000000e+00
      vertex -9.999989e+00 8.782773e-01 0.000000e+00
    endloop
  endfacet
  facet normal -1.000000e+00 0.000000e+00 0.000000e+00
    outer loop
      vertex -9.999989e+00 3.326287e+00 4.499991e+00
      vertex -9.999989e+00 8.782773e-01 0.000000e+00
      vertex -9.999989e+00 -2.735431e+00 4.499991e+00
    endloop
  endfacet
  facet normal -1.000000e+00 0.000000e+00 0.000000e+00
    outer loop
      vertex -9.999989e+00 -6.990283e+00 4.499991e+00
      vertex -9.999989e+00 -1.217771e+01 0.000000e+00
      vertex -9.999989e+00 -2.000000e+01 0.000000e+00
    endloop
  endfacet
  facet normal -1.000000e+00 0.000000e+00 0.000000e+00
    outer loop
      vertex -9.999989e+00 -2.000000e+01 0.000000e+00
      vertex -9.999989e+00 -2.000000e+01 4.499991e+00
      vertex -9.999989e+00 -6.990283e+00 4.499991e+00
    endloop
  endfacet
  facet normal -1.000000e+00 0.000000e+00 0.000000e+00
    outer loop
      vertex -9.999989e+00 8.782773e-01 0.000000e+00
      vertex -9.999989e+00 -6.990283e+00 4.499991e+00
      vertex -9.999989e+00 -2.735431e+00 4.499991e+00
    endloop
  endfacet
  facet normal -1.000000e+00 0.000000e+00 0.000000e+00
    outer loop
      vertex -9.999989e+00 -6.990283e+00 4.499991e+00
      vertex -9.999989e+00 8.782773e-01 0.000000e+00
      vertex -9.999989e+00 -1.217771e+01 0.000000e+00
    endloop
  endfacet
  facet normal 0.000000e+00 0.000000e+00 -1.000000e+00
    outer loop
      vertex -2.414817e+00 9.352954e+00 0.000000e+00
      vertex -3.205697e+00 8.975990e+00 0.000000e+00
      vertex -2.500011e+00 1.000001e+01 0.000000e+00
    endloop
  endfacet
  facet normal 0.000000e+00 0.000000e+00 -1.000000e+00
    outer loop
      vertex 2.414817e+00 9.352954e+00 0.000000e+00
      vertex 2.500011e+00 1.000001e+01 0.000000e+00
      vertex 5.187432e+00 9.908564e+00 0.000000e+00
    endloop
  endfacet
  facet normal 0.000000e+00 0.000000e+00 -1.000000e+00
    outer loop
      vertex 9.999989e+00 1.054573e+01 0.000000e+00
      vertex 4.254870e+00 1.270629e+01 0.000000e+00
      vertex 9.999989e+00 2.000000e+01 0.000000e+00
    endloop
  endfacet
  facet normal 0.000000e+00 0.000000e+00 -1.000000e+00
    outer loop
      vertex 5.733147e+00 2.000000e+01 0.000000e+00
      vertex 9.999989e+00 2.000000e+01 0.000000e+00
      vertex 4.254870e+00 1.270629e+01 0.000000e+00
    endloop
  endfacet
  facet normal 0.000000e+00 0.000000e+00 -1.000000e+00
    outer loop
      vertex 9.999989e+00 1.054573e+01 0.000000e+00
      vertex 5.187432e+00 9.908564e+00 0.000000e+00
      vertex 4.254870e+00 1.270629e+01 0.000000e+00
    endloop
  endfacet
  facet normal 0.000000e+00 0.000000e+00 -1.000000e+00
    outer loop
      vertex 9.999989e+00 6.203437e+00 0.000000e+00
      vertex 5.187432e+00 9.908564e+00 0.000000e+00
      vertex 9.999989e+00 1.054573e+01 0.000000e+00
    endloop
  endfacet
  facet normal 0.000000e+00 0.000000e+00 -1.000000e+00
    outer loop
      vertex -9.697143e-01 2.000000e+01 0.000000e+00
      vertex 5.733147e+00 2.000000e+01 0.000000e+00
      vertex 6.470232e-01 1.241481e+01 0.000000e+00
    endloop
  endfacet
  facet normal 0.000000e+00 0.000000e+00 -1.000000e+00
    outer loop
      vertex 6.470232e-01 1.241481e+01 0.000000e+00
      vertex -6.003431e+00 1.643658e+01 0.000000e+00
      vertex -9.697143e-01 2.000000e+01 0.000000e+00
    endloop
  endfacet
  facet normal 0.000000e+00 0.000000e+00 -1.000000e+00
    outer loop
      vertex -9.697143e-01 2.000000e+01 0.000000e+00
      vertex -9.999989e+00 1.440986e+01 0.000000e+00
      vertex -9.999989e+00 2.000000e+01 0.000000e+00
    endloop
  endfacet
  facet normal 0.000000e+00 0.000000e+00 -1.000000e+00
    outer loop
      vertex -6.003431e+00 1.643658e+01 0.000000e+00
      vertex -9.999989e+00 1.440986e+01 0.000000e+00
      vertex -9.697143e-01 2.000000e+01 0.000000e+00
    endloop
  endfacet
  facet normal 0.000000e+00 0.000000e+00 -1.000000e+00
    outer loop
      vertex 4.254870e+00 1.270629e+01 0.000000e+00
      vertex 1.250002e+00 1.216506e+01 0.000000e+00
      vertex 6.470232e-01 1.241481e+01 0.000000e+00
    endloop
  endfacet
  facet normal 0.000000e+00 0.000000e+00 -1.000000e+00
    outer loop
      vertex -1.816750e-05 1.250000e+01 0.000000e+00
      vertex -6.003431e+00 1.643658e+01 0.000000e+00
      vertex 6.470232e-01 1.241481e+01 0.000000e+00
    endloop
  endfacet
  facet normal 0.000000e+00 0.000000e+00 -1.000000e+00
    outer loop
      vertex 6.470232e-01 1.241481e+01 0.000000e+00
      vertex 5.733147e+00 2.000000e+01 0.000000e+00
      vertex 4.254870e+00 1.270629e+01 0.000000e+00
    endloop
  endfacet
  facet normal 0.000000e+00 0.000000e+00 -1.000000e+00
    outer loop
      vertex 2.165063e+00 1.125000e+01 0.000000e+00
      vertex 4.254870e+00 1.270629e+01 0.000000e+00
      vertex 2.414817e+00 1.064706e+01 0.000000e+00
    endloop
  endfacet
  facet normal 0.000000e+00 0.000000e+00 -1.000000e+00
    outer loop
      vertex 5.187432e+00 9.908564e+00 0.000000e+00
      vertex 2.414817e+00 1.064706e+01 0.000000e+00
      vertex 4.254870e+00 1.270629e+01 0.000000e+00
    endloop
  endfacet
  facet normal 0.000000e+00 0.000000e+00 -1.000000e+00
    outer loop
      vertex 1.250002e+00 1.216506e+01 0.000000e+00
      vertex 4.254870e+00 1.270629e+01 0.000000e+00
      vertex 1.767776e+00 1.176778e+01 0.000000e+00
    endloop
  endfacet
  facet normal 0.000000e+00 0.000000e+00 -1.000000e+00
    outer loop
      vertex 2.165063e+00 1.125000e+01 0.000000e+00
      vertex 1.767776e+00 1.176778e+01 0.000000e+00
      vertex 4.254870e+00 1.270629e+01 0.000000e+00
    endloop
  endfacet
  facet normal 0.000000e+00 0.000000e+00 -1.000000e+00
    outer loop
      vertex 5.187432e+00 9.908564e+00 0.000000e+00
      vertex 2.500011e+00 1.000001e+01 0.000000e+00
      vertex 2.414817e+00 1.064706e+01 0.000000e+00
    endloop
  endfacet
  facet normal 0.000000e+00 0.000000e+00 -1.000000e+00
    outer loop
      vertex -1.816750e-05 1.250000e+01 0.000000e+00
      vertex -6.470475e-01 1.241481e+01 0.000000e+00
      vertex -6.003431e+00 1.643658e+01 0.000000e+00
    endloop
  endfacet
  facet normal 0.000000e+00 0.000000e+00 -1.000000e+00
    outer loop
      vertex -1.767776e+00 1.176778e+01 0.000000e+00
      vertex -2.165087e+00 1.125000e+01 0.000000e+00
      vertex -6.003431e+00 1.643658e+01 0.000000e+00
    endloop
  endfacet
  facet normal 0.000000e+00 0.000000e+00 -1.000000e+00
    outer loop
      vertex -1.767776e+00 1.176778e+01 0.000000e+00
      vertex -6.003431e+00 1.643658e+01 0.000000e+00
      vertex -1.250002e+00 1.216506e+01 0.000000e+00
    endloop
  endfacet
  facet normal 0.000000e+00 0.000000e+00 -1.000000e+00
    outer loop
      vertex -6.470475e-01 1.241481e+01 0.000000e+00
      vertex -1.250002e+00 1.216506e+01 0.000000e+00
      vertex -6.003431e+00 1.643658e+01 0.000000e+00
    endloop
  endfacet
  facet normal 0.000000e+00 0.000000e+00 -1.000000e+00
    outer loop
      vertex -9.999989e+00 1.440986e+01 0.000000e+00
      vertex -6.003431e+00 1.643658e+01 0.000000e+00
      vertex -3.205697e+00 8.975990e+00 0.000000e+00
    endloop
  endfacet
  facet normal 0.000000e+00 0.000000e+00 -1.000000e+00
    outer loop
      vertex -3.205697e+00 8.975990e+00 0.000000e+00
      vertex -2.165087e+00 1.125000e+01 0.000000e+00
      vertex -2.414817e+00 1.064706e+01 0.000000e+00
    endloop
  endfacet
  facet normal 0.000000e+00 0.000000e+00 -1.000000e+00
    outer loop
      vertex -3.205697e+00 8.975990e+00 0.000000e+00
      vertex -6.003431e+00 1.643658e+01 0.000000e+00
      vertex -2.165087e+00 1.125000e+01 0.000000e+00
    endloop
  endfacet
  facet normal 0.000000e+00 0.000000e+00 -1.000000e+00
    outer loop
      vertex -3.205697e+00 8.975990e+00 0.000000e+00
      vertex -2.414817e+00 1.064706e+01 0.000000e+00
      vertex -2.500011e+00 1.000001e+01 0.000000e+00
    endloop
  endfacet
  facet normal -0.000000e+00 -0.000000e+00 -1.000000e+00
    outer loop
      vertex 1.250002e+00 7.834951e+00 0.000000e+00
      vertex 9.999989e+00 6.203437e+00 0.000000e+00
      vertex 9.999989e+00 4.914308e-01 0.000000e+00
    endloop
  endfacet
  facet normal 0.000000e+00 0.000000e+00 -1.000000e+00
    outer loop
      vertex 9.999989e+00 6.203437e+00 0.000000e+00
      vertex 1.250002e+00 7.834951e+00 0.000000e+00
      vertex 5.187432e+00 9.908564e+00 0.000000e+00
    endloop
  endfacet
  facet normal 0.000000e+00 0.000000e+00 -1.000000e+00
    outer loop
      vertex 6.120018e+00 -3.147422e+00 0.000000e+00
      vertex 9.999989e+00 4.914308e-01 0.000000e+00
      vertex 9.999989e+00 -7.872569e+00 0.000000e+00
    endloop
  endfacet
  facet normal 0.000000e+00 0.000000e+00 -1.000000e+00
    outer loop
      vertex 9.999989e+00 4.914308e-01 0.000000e+00
      vertex 6.120018e+00 -3.147422e+00 0.000000e+00
      vertex 1.250002e+00 7.834951e+00 0.000000e+00
    endloop
  endfacet
  facet normal 0.000000e+00 0.000000e+00 -1.000000e+00
    outer loop
      vertex -1.767776e+00 8.232237e+00 0.000000e+00
      vertex -2.273135e+00 6.178293e+00 0.000000e+00
      vertex -3.205697e+00 8.975990e+00 0.000000e+00
    endloop
  endfacet
  facet normal -0.000000e+00 -0.000000e+00 -1.000000e+00
    outer loop
      vertex -3.205697e+00 8.975990e+00 0.000000e+00
      vertex -2.165087e+00 8.750011e+00 0.000000e+00
      vertex -1.767776e+00 8.232237e+00 0.000000e+00
    endloop
  endfacet
  facet normal 0.000000e+00 0.000000e+00 -1.000000e+00
    outer loop
      vertex -3.205697e+00 8.975990e+00 0.000000e+00
      vertex -2.414817e+00 9.352954e+00 0.000000e+00
      vertex -2.165087e+00 8.750011e+00 0.000000e+00
    endloop
  endfacet
  facet normal 0.000000e+00 0.000000e+00 -1.000000e+00
    outer loop
      vertex 1.250002e+00 7.834951e+00 0.000000e+00
      vertex -2.273135e+00 6.178293e+00 0.000000e+00
      vertex 6.470232e-01 7.585184e+00 0.000000e+00
    endloop
  endfacet
  facet normal 0.000000e+00 0.000000e+00 -1.000000e+00
    outer loop
      vertex 5.187432e+00 9.908564e+00 0.000000e+00
      vertex 2.165063e+00 8.750011e+00 0.000000e+00
      vertex 2.414817e+00 9.352954e+00 0.000000e+00
    endloop
  endfacet
  facet normal 0.000000e+00 0.000000e+00 -1.000000e+00
    outer loop
      vertex 1.767776e+00 8.232237e+00 0.000000e+00
      vertex 5.187432e+00 9.908564e+00 0.000000e+00
      vertex 1.250002e+00 7.834951e+00 0.000000e+00
    endloop
  endfacet
  facet normal 0.000000e+00 0.000000e+00 -1.000000e+00
    outer loop
      vertex 1.767776e+00 8.232237e+00 0.000000e+00
      vertex 2.165063e+00 8.750011e+00 0.000000e+00
      vertex 5.187432e+00 9.908564e+00 0.000000e+00
    endloop
  endfacet
  facet normal 0.000000e+00 0.000000e+00 -1.000000e+00
    outer loop
      vertex -1.250002e+00 7.834951e+00 0.000000e+00
      vertex -6.470475e-01 7.585184e+00 0.000000e+00
      vertex -2.273135e+00 6.178293e+00 0.000000e+00
    endloop
  endfacet
  facet normal 0.000000e+00 0.000000e+00 -1.000000e+00
    outer loop
      vertex -1.250002e+00 7.834951e+00 0.000000e+00
      vertex -2.273135e+00 6.178293e+00 0.000000e+00
      vertex -1.767776e+00 8.232237e+00 0.000000e+00
    endloop
  endfacet
  facet normal 0.000000e+00 0.000000e+00 -1.000000e+00
    outer loop
      vertex -1.816750e-05 7.500015e+00 0.000000e+00
      vertex 6.470232e-01 7.585184e+00 0.000000e+00
      vertex -2.273135e+00 6.178293e+00 0.000000e+00
    endloop
  endfacet
  facet normal 0.000000e+00 0.000000e+00 -1.000000e+00
    outer loop
      vertex -6.470475e-01 7.585184e+00 0.000000e+00
      vertex -1.816750e-05 7.500015e+00 0.000000e+00
      vertex -2.273135e+00 6.178293e+00 0.000000e+00
    endloop
  endfacet
  facet normal 0.000000e+00 0.000000e+00 -1.000000e+00
    outer loop
      vertex -6.003431e+00 3.380571e+00 0.000000e+00
      vertex -2.273135e+00 6.178293e+00 0.000000e+00
      vertex 1.250002e+00 7.834951e+00 0.000000e+00
    endloop
  endfacet
  facet normal 0.000000e+00 0.000000e+00 -1.000000e+00
    outer loop
      vertex -6.003431e+00 3.380571e+00 0.000000e+00
      vertex 1.250002e+00 7.834951e+00 0.000000e+00
      vertex -4.138283e+00 -3.497243e-01 0.000000e+00
    endloop
  endfacet
  facet normal 0.000000e+00 0.000000e+00 -1.000000e+00
    outer loop
      vertex -3.205697e+00 8.975990e+00 0.000000e+00
      vertex -2.273135e+00 6.178293e+00 0.000000e+00
      vertex -6.003431e+00 3.380571e+00 0.000000e+00
    endloop
  endfacet
  facet normal 0.000000e+00 0.000000e+00 -1.000000e+00
    outer loop
      vertex -3.205697e+00 8.975990e+00 0.000000e+00
      vertex -9.999989e+00 8.782773e-01 0.000000e+00
      vertex -9.999989e+00 1.440986e+01 0.000000e+00
    endloop
  endfacet
  facet normal 0.000000e+00 0.000000e+00 -1.000000e+00
    outer loop
      vertex -9.999989e+00 8.782773e-01 0.000000e+00
      vertex -3.205697e+00 8.975990e+00 0.000000e+00
      vertex -6.003431e+00 3.380571e+00 0.000000e+00
    endloop
  endfacet
  facet normal 0.000000e+00 0.000000e+00 -1.000000e+00
    outer loop
      vertex -4.138283e+00 -3.497243e-01 0.000000e+00
      vertex 6.120018e+00 -3.147422e+00 0.000000e+00
      vertex -4.079875e-01 -5.012570e+00 0.000000e+00
    endloop
  endfacet
  facet normal 0.000000e+00 0.000000e+00 -1.000000e+00
    outer loop
      vertex -4.138283e+00 -3.497243e-01 0.000000e+00
      vertex 1.250002e+00 7.834951e+00 0.000000e+00
      vertex 6.120018e+00 -3.147422e+00 0.000000e+00
    endloop
  endfacet
  facet normal 0.000000e+00 0.000000e+00 -1.000000e+00
    outer loop
      vertex -4.138283e+00 -3.497243e-01 0.000000e+00
      vertex -9.999989e+00 8.782773e-01 0.000000e+00
      vertex -6.003431e+00 3.380571e+00 0.000000e+00
    endloop
  endfacet
  facet normal -0.000000e+00 -0.000000e+00 -1.000000e+00
    outer loop
      vertex -9.999989e+00 8.782773e-01 0.000000e+00
      vertex -4.138283e+00 -3.497243e-01 0.000000e+00
      vertex -4.079875e-01 -5.012570e+00 0.000000e+00
    endloop
  endfacet
  facet normal 0.000000e+00 0.000000e+00 -1.000000e+00
    outer loop
      vertex -4.079875e-01 -5.012570e+00 0.000000e+00
      vertex -6.936017e+00 -8.742865e+00 0.000000e+00
      vertex -9.999989e+00 8.782773e-01 0.000000e+00
    endloop
  endfacet
  facet normal 0.000000e+00 0.000000e+00 -1.000000e+00
    outer loop
      vertex 3.160714e+00 -2.000000e+01 0.000000e+00
      vertex 9.999989e+00 -7.872569e+00 0.000000e+00
      vertex 9.999989e+00 -1.361369e+01 0.000000e+00
    endloop
  endfacet
  facet normal 0.000000e+00 0.000000e+00 -1.000000e+00
    outer loop
      vertex 3.160714e+00 -2.000000e+01 0.000000e+00
      vertex 9.999989e+00 -1.361369e+01 0.000000e+00
      vertex 9.999989e+00 -2.000000e+01 0.000000e+00
    endloop
  endfacet
  facet normal 0.000000e+00 0.000000e+00 -1.000000e+00
    outer loop
      vertex -2.414817e+00 -9.352954e+00 0.000000e+00
      vertex -2.500011e+00 -1.000001e+01 0.000000e+00
      vertex -6.936017e+00 -8.742865e+00 0.000000e+00
    endloop
  endfacet
  facet normal 0.000000e+00 0.000000e+00 -1.000000e+00
    outer loop
      vertex -1.767776e+00 -8.232237e+00 0.000000e+00
      vertex -6.936017e+00 -8.742865e+00 0.000000e+00
      vertex -4.079875e-01 -5.012570e+00 0.000000e+00
    endloop
  endfacet
  facet normal 0.000000e+00 0.000000e+00 -1.000000e+00
    outer loop
      vertex -6.936017e+00 -8.742865e+00 0.000000e+00
      vertex -1.767776e+00 -8.232237e+00 0.000000e+00
      vertex -2.165087e+00 -8.749987e+00 0.000000e+00
    endloop
  endfacet
  facet normal 0.000000e+00 0.000000e+00 -1.000000e+00
    outer loop
      vertex -6.936017e+00 -8.742865e+00 0.000000e+00
      vertex -2.165087e+00 -8.749987e+00 0.000000e+00
      vertex -2.414817e+00 -9.352954e+00 0.000000e+00
    endloop
  endfacet
  facet normal 0.000000e+00 0.000000e+00 -1.000000e+00
    outer loop
      vertex -2.165087e+00 -1.125000e+01 0.000000e+00
      vertex -2.506285e+00 -1.597028e+01 0.000000e+00
      vertex -2.414817e+00 -1.064704e+01 0.000000e+00
    endloop
  endfacet
  facet normal 0.000000e+00 0.000000e+00 -1.000000e+00
    outer loop
      vertex -2.506285e+00 -1.597028e+01 0.000000e+00
      vertex -2.165087e+00 -1.125000e+01 0.000000e+00
      vertex -1.767776e+00 -1.176775e+01 0.000000e+00
    endloop
  endfacet
  facet normal 0.000000e+00 0.000000e+00 -1.000000e+00
    outer loop
      vertex -1.250002e+00 -1.216506e+01 0.000000e+00
      vertex -6.470475e-01 -1.241481e+01 0.000000e+00
      vertex -2.506285e+00 -1.597028e+01 0.000000e+00
    endloop
  endfacet
  facet normal 0.000000e+00 0.000000e+00 -1.000000e+00
    outer loop
      vertex 6.470232e-01 -1.241481e+01 0.000000e+00
      vertex -2.506285e+00 -1.597028e+01 0.000000e+00
      vertex -1.816750e-05 -1.250000e+01 0.000000e+00
    endloop
  endfacet
  facet normal 0.000000e+00 0.000000e+00 -1.000000e+00
    outer loop
      vertex -6.470475e-01 -1.241481e+01 0.000000e+00
      vertex -1.816750e-05 -1.250000e+01 0.000000e+00
      vertex -2.506285e+00 -1.597028e+01 0.000000e+00
    endloop
  endfacet
  facet normal 0.000000e+00 0.000000e+00 -1.000000e+00
    outer loop
      vertex -1.250002e+00 -1.216506e+01 0.000000e+00
      vertex -2.506285e+00 -1.597028e+01 0.000000e+00
      vertex -1.767776e+00 -1.176775e+01 0.000000e+00
    endloop
  endfacet
  facet normal 0.000000e+00 0.000000e+00 -1.000000e+00
    outer loop
      vertex -2.506285e+00 -1.597028e+01 0.000000e+00
      vertex -9.999989e+00 -2.000000e+01 0.000000e+00
      vertex -9.999989e+00 -1.217771e+01 0.000000e+00
    endloop
  endfacet
  facet normal 0.000000e+00 0.000000e+00 -1.000000e+00
    outer loop
      vertex 2.414817e+00 -9.352954e+00 0.000000e+00
      vertex 9.999989e+00 -7.872569e+00 0.000000e+00
      vertex 2.500011e+00 -1.000001e+01 0.000000e+00
    endloop
  endfacet
  facet normal 0.000000e+00 0.000000e+00 -1.000000e+00
    outer loop
      vertex 9.999989e+00 -7.872569e+00 0.000000e+00
      vertex 2.165063e+00 -8.749987e+00 0.000000e+00
      vertex 1.767776e+00 -8.232237e+00 0.000000e+00
    endloop
  endfacet
  facet normal 0.000000e+00 0.000000e+00 -1.000000e+00
    outer loop
      vertex 9.999989e+00 -7.872569e+00 0.000000e+00
      vertex 2.414817e+00 -9.352954e+00 0.000000e+00
      vertex 2.165063e+00 -8.749987e+00 0.000000e+00
    endloop
  endfacet
  facet normal 0.000000e+00 0.000000e+00 -1.000000e+00
    outer loop
      vertex -4.079875e-01 -5.012570e+00 0.000000e+00
      vertex 9.999989e+00 -7.872569e+00 0.000000e+00
      vertex 1.767776e+00 -8.232237e+00 0.000000e+00
    endloop
  endfacet
  facet normal 0.000000e+00 0.000000e+00 -1.000000e+00
    outer loop
      vertex 1.767776e+00 -8.232237e+00 0.000000e+00
      vertex 1.250002e+00 -7.834926e+00 0.000000e+00
      vertex -4.079875e-01 -5.012570e+00 0.000000e+00
    endloop
  endfacet
  facet normal 0.000000e+00 0.000000e+00 -1.000000e+00
    outer loop
      vertex 1.250002e+00 -7.834926e+00 0.000000e+00
      vertex 6.470232e-01 -7.585184e+00 0.000000e+00
      vertex -4.079875e-01 -5.012570e+00 0.000000e+00
    endloop
  endfacet
  facet normal 0.000000e+00 0.000000e+00 -1.000000e+00
    outer loop
      vertex 6.120018e+00 -3.147422e+00 0.000000e+00
      vertex 9.999989e+00 -7.872569e+00 0.000000e+00
      vertex -4.079875e-01 -5.012570e+00 0.000000e+00
    endloop
  endfacet
  facet normal 0.000000e+00 0.000000e+00 -1.000000e+00
    outer loop
      vertex -6.470475e-01 -7.585184e+00 0.000000e+00
      vertex -1.250002e+00 -7.834926e+00 0.000000e+00
      vertex -4.079875e-01 -5.012570e+00 0.000000e+00
    endloop
  endfacet
  facet normal 0.000000e+00 0.000000e+00 -1.000000e+00
    outer loop
      vertex -1.250002e+00 -7.834926e+00 0.000000e+00
      vertex -1.767776e+00 -8.232237e+00 0.000000e+00
      vertex -4.079875e-01 -5.012570e+00 0.000000e+00
    endloop
  endfacet
  facet normal 0.000000e+00 0.000000e+00 -1.000000e+00
    outer loop
      vertex -4.079875e-01 -5.012570e+00 0.000000e+00
      vertex 6.470232e-01 -7.585184e+00 0.000000e+00
      vertex -1.816750e-05 -7.499990e+00 0.000000e+00
    endloop
  endfacet
  facet normal 0.000000e+00 0.000000e+00 -1.000000e+00
    outer loop
      vertex -1.816750e-05 -7.499990e+00 0.000000e+00
      vertex -6.470475e-01 -7.585184e+00 0.000000e+00
      vertex -4.079875e-01 -5.012570e+00 0.000000e+00
    endloop
  endfacet
  facet normal 0.000000e+00 0.000000e+00 -1.000000e+00
    outer loop
      vertex 2.165063e+00 -1.125000e+01 0.000000e+00
      vertex 2.414817e+00 -1.064704e+01 0.000000e+00
      vertex 3.160714e+00 -2.000000e+01 0.000000e+00
    endloop
  endfacet
  facet normal 0.000000e+00 0.000000e+00 -1.000000e+00
    outer loop
      vertex 3.160714e+00 -2.000000e+01 0.000000e+00
      vertex 2.414817e+00 -1.064704e+01 0.000000e+00
      vertex 2.500011e+00 -1.000001e+01 0.000000e+00
    endloop
  endfacet
  facet normal 0.000000e+00 0.000000e+00 -1.000000e+00
    outer loop
      vertex 2.500011e+00 -1.000001e+01 0.000000e+00
      vertex 9.999989e+00 -7.872569e+00 0.000000e+00
      vertex 3.160714e+00 -2.000000e+01 0.000000e+00
    endloop
  endfacet
  facet normal 0.000000e+00 0.000000e+00 -1.000000e+00
    outer loop
      vertex 3.160714e+00 -2.000000e+01 0.000000e+00
      vertex 1.250002e+00 -1.216506e+01 0.000000e+00
      vertex 1.767776e+00 -1.176775e+01 0.000000e+00
    endloop
  endfacet
  facet normal 0.000000e+00 0.000000e+00 -1.000000e+00
    outer loop
      vertex 1.767776e+00 -1.176775e+01 0.000000e+00
      vertex 2.165063e+00 -1.125000e+01 0.000000e+00
      vertex 3.160714e+00 -2.000000e+01 0.000000e+00
    endloop
  endfacet
  facet normal 0.000000e+00 0.000000e+00 -1.000000e+00
    outer loop
      vertex -9.999989e+00 -1.217771e+01 0.000000e+00
      vertex -6.936017e+00 -8.742865e+00 0.000000e+00
      vertex -2.506285e+00 -1.597028e+01 0.000000e+00
    endloop
  endfacet
  facet normal 0.000000e+00 0.000000e+00 -1.000000e+00
    outer loop
      vertex -9.999989e+00 -1.217771e+01 0.000000e+00
      vertex -9.999989e+00 8.782773e-01 0.000000e+00
      vertex -6.936017e+00 -8.742865e+00 0.000000e+00
    endloop
  endfacet
  facet normal 0.000000e+00 0.000000e+00 -1.000000e+00
    outer loop
      vertex -2.414817e+00 -1.064704e+01 0.000000e+00
      vertex -2.506285e+00 -1.597028e+01 0.000000e+00
      vertex -6.936017e+00 -8.742865e+00 0.000000e+00
    endloop
  endfacet
  facet normal -0.000000e+00 -0.000000e+00 -1.000000e+00
    outer loop
      vertex -6.936017e+00 -8.742865e+00 0.000000e+00
      vertex -2.500011e+00 -1.000001e+01 0.000000e+00
      vertex -2.414817e+00 -1.064704e+01 0.000000e+00
    endloop
  endfacet
  facet normal 0.000000e+00 0.000000e+00 -1.000000e+00
    outer loop
      vertex 6.470232e-01 -1.241481e+01 0.000000e+00
      vertex 1.250002e+00 -1.216506e+01 0.000000e+00
      vertex 3.160714e+00 -2.000000e+01 0.000000e+00
    endloop
  endfacet
  facet normal 0.000000e+00 0.000000e+00 -1.000000e+00
    outer loop
      vertex 3.160714e+00 -2.000000e+01 0.000000e+00
      vertex -2.506285e+00 -1.597028e+01 0.000000e+00
      vertex 6.470232e-01 -1.241481e+01 0.000000e+00
    endloop
  endfacet
  facet normal 0.000000e+00 0.000000e+00 -1.000000e+00
    outer loop
      vertex -9.999989e+00 -2.000000e+01 0.000000e+00
      vertex -2.506285e+00 -1.597028e+01 0.000000e+00
      vertex 3.160714e+00 -2.000000e+01 0.000000e+00
    endloop
  endfacet
  facet normal 0.000000e+00 0.000000e+00 1.000000e+00
    outer loop
      vertex -2.500011e+00 1.000001e+01 1.499997e+00
      vertex -3.438871e+00 1.154056e+01 1.499997e+00
      vertex -8.000002e+00 7.650296e+00 1.499997e+00
    endloop
  endfacet
  facet normal 0.000000e+00 0.000000e+00 1.000000e+00
    outer loop
      vertex 9.999989e+00 2.000000e+01 4.499991e+00
      vertex 6.499997e+00 2.000000e+01 4.499991e+00
      vertex 6.499997e+00 1.483259e+01 4.499991e+00
    endloop
  endfacet
  facet normal 0.000000e+00 1.000000e+00 0.000000e+00
    outer loop
      vertex 9.999989e+00 2.000000e+01 4.499991e+00
      vertex 7.999990e+00 2.000000e+01 2.999994e+00
      vertex 6.499997e+00 2.000000e+01 4.499991e+00
    endloop
  endfacet
  facet normal -7.071077e-01 0.000000e+00 -7.071059e-01
    outer loop
      vertex 7.999990e+00 2.000000e+01 2.999994e+00
      vertex 6.499997e+00 1.483259e+01 4.499991e+00
      vertex 6.499997e+00 2.000000e+01 4.499991e+00
    endloop
  endfacet
  facet normal 0.000000e+00 1.000000e+00 0.000000e+00
    outer loop
      vertex 9.999989e+00 2.000000e+01 0.000000e+00
      vertex 7.999990e+00 2.000000e+01 1.499997e+00
      vertex 7.999990e+00 2.000000e+01 2.999994e+00
    endloop
  endfacet
  facet normal 0.000000e+00 1.000000e+00 0.000000e+00
    outer loop
      vertex 9.999989e+00 2.000000e+01 0.000000e+00
      vertex 7.999990e+00 2.000000e+01 2.999994e+00
      vertex 9.999989e+00 2.000000e+01 4.499991e+00
    endloop
  endfacet
  facet normal 0.000000e+00 1.000000e+00 0.000000e+00
    outer loop
      vertex 9.999989e+00 2.000000e+01 0.000000e+00
      vertex 5.733147e+00 2.000000e+01 0.000000e+00
      vertex 2.614866e+00 2.000000e+01 1.499997e+00
    endloop
  endfacet
  facet normal 0.000000e+00 1.000000e+00 0.000000e+00
    outer loop
      vertex 2.614866e+00 2.000000e+01 1.499997e+00
      vertex 7.999990e+00 2.000000e+01 1.499997e+00
      vertex 9.999989e+00 2.000000e+01 0.000000e+00
    endloop
  endfacet
  facet normal 1.000000e+00 0.000000e+00 0.000000e+00
    outer loop
      vertex 9.999989e+00 2.000000e+01 0.000000e+00
      vertex 9.999989e+00 2.000000e+01 4.499991e+00
      vertex 9.999989e+00 1.445087e+01 4.499991e+00
    endloop
  endfacet
  facet normal -7.071077e-01 -0.000000e+00 -7.071059e-01
    outer loop
      vertex 6.499997e+00 1.483259e+01 4.499991e+00
      vertex 7.999990e+00 2.000000e+01 2.999994e+00
      vertex 7.999990e+00 9.835434e+00 2.999994e+00
    endloop
  endfacet
  facet normal 1.000000e+00 0.000000e+00 0.000000e+00
    outer loop
      vertex 9.999989e+00 9.205167e+00 4.499991e+00
      vertex 9.999989e+00 1.054573e+01 0.000000e+00
      vertex 9.999989e+00 1.445087e+01 4.499991e+00
    endloop
  endfacet
  facet normal -7.071077e-01 -0.000000e+00 -7.071059e-01
    outer loop
      vertex 6.499997e+00 7.925715e+00 4.499991e+00
      vertex 6.499997e+00 1.483259e+01 4.499991e+00
      vertex 7.999990e+00 9.835434e+00 2.999994e+00
    endloop
  endfacet
  facet normal 0.000000e+00 0.000000e+00 1.000000e+00
    outer loop
      vertex 6.499997e+00 1.483259e+01 4.499991e+00
      vertex 9.999989e+00 1.445087e+01 4.499991e+00
      vertex 9.999989e+00 2.000000e+01 4.499991e+00
    endloop
  endfacet
  facet normal 0.000000e+00 0.000000e+00 1.000000e+00
    outer loop
      vertex 9.999989e+00 1.445087e+01 4.499991e+00
      vertex 6.499997e+00 1.483259e+01 4.499991e+00
      vertex 6.499997e+00 7.925715e+00 4.499991e+00
    endloop
  endfacet
  facet normal 0.000000e+00 0.000000e+00 1.000000e+00
    outer loop
      vertex 6.499997e+00 7.925715e+00 4.499991e+00
      vertex 9.999989e+00 9.205167e+00 4.499991e+00
      vertex 9.999989e+00 1.445087e+01 4.499991e+00
    endloop
  endfacet
  facet normal 1.000000e+00 0.000000e+00 0.000000e+00
    outer loop
      vertex 9.999989e+00 2.000000e+01 0.000000e+00
      vertex 9.999989e+00 1.445087e+01 4.499991e+00
      vertex 9.999989e+00 1.054573e+01 0.000000e+00
    endloop
  endfacet
  facet normal 0.000000e+00 0.000000e+00 1.000000e+00
    outer loop
      vertex 2.614866e+00 2.000000e+01 1.499997e+00
      vertex 7.999990e+00 1.158402e+01 1.499997e+00
      vertex 7.999990e+00 2.000000e+01 1.499997e+00
    endloop
  endfacet
  facet normal -1.000000e+00 0.000000e+00 0.000000e+00
    outer loop
      vertex 7.999990e+00 2.000000e+01 2.999994e+00
      vertex 7.999990e+00 2.000000e+01 1.499997e+00
      vertex 7.999990e+00 1.158402e+01 1.499997e+00
    endloop
  endfacet
  facet normal -1.000000e+00 0.000000e+00 0.000000e+00
    outer loop
      vertex 7.999990e+00 1.158402e+01 1.499997e+00
      vertex 7.999990e+00 9.835434e+00 2.999994e+00
      vertex 7.999990e+00 2.000000e+01 2.999994e+00
    endloop
  endfacet
  facet normal 0.000000e+00 0.000000e+00 1.000000e+00
    outer loop
      vertex 7.999990e+00 1.158402e+01 1.499997e+00
      vertex 2.614866e+00 2.000000e+01 1.499997e+00
      vertex 2.414817e+00 1.064706e+01 1.499997e+00
    endloop
  endfacet
  facet normal 0.000000e+00 0.000000e+00 1.000000e+00
    outer loop
      vertex -8.000002e+00 2.000000e+01 1.499997e+00
      vertex -1.573723e+00 1.573713e+01 1.499997e+00
      vertex 2.614866e+00 2.000000e+01 1.499997e+00
    endloop
  endfacet
  facet normal 0.000000e+00 0.000000e+00 1.000000e+00
    outer loop
      vertex -3.438871e+00 1.154056e+01 1.499997e+00
      vertex -2.414817e+00 1.064706e+01 1.499997e+00
      vertex -2.165087e+00 1.125000e+01 1.499997e+00
    endloop
  endfacet
  facet normal 0.000000e+00 0.000000e+00 1.000000e+00
    outer loop
      vertex -2.165087e+00 1.125000e+01 1.499997e+00
      vertex -1.767776e+00 1.176778e+01 1.499997e+00
      vertex -3.438871e+00 1.154056e+01 1.499997e+00
    endloop
  endfacet
  facet normal 0.000000e+00 0.000000e+00 1.000000e+00
    outer loop
      vertex -3.438871e+00 1.154056e+01 1.499997e+00
      vertex -1.767776e+00 1.176778e+01 1.499997e+00
      vertex -1.250002e+00 1.216506e+01 1.499997e+00
    endloop
  endfacet
  facet normal 0.000000e+00 0.000000e+00 1.000000e+00
    outer loop
      vertex -2.414817e+00 1.064706e+01 1.499997e+00
      vertex -3.438871e+00 1.154056e+01 1.499997e+00
      vertex -2.500011e+00 1.000001e+01 1.499997e+00
    endloop
  endfacet
  facet normal 0.000000e+00 1.000000e+00 0.000000e+00
    outer loop
      vertex 5.733147e+00 2.000000e+01 0.000000e+00
      vertex -9.697143e-01 2.000000e+01 0.000000e+00
      vertex 2.614866e+00 2.000000e+01 1.499997e+00
    endloop
  endfacet
  facet normal 0.000000e+00 1.000000e+00 0.000000e+00
    outer loop
      vertex -8.000002e+00 2.000000e+01 1.499997e+00
      vertex 2.614866e+00 2.000000e+01 1.499997e+00
      vertex -9.697143e-01 2.000000e+01 0.000000e+00
    endloop
  endfacet
  facet normal 0.000000e+00 1.000000e+00 0.000000e+00
    outer loop
      vertex -9.999989e+00 2.000000e+01 4.499991e+00
      vertex -6.499997e+00 2.000000e+01 4.499991e+00
      vertex -8.000002e+00 2.000000e+01 2.999994e+00
    endloop
  endfacet
  facet normal 0.000000e+00 1.000000e+00 0.000000e+00
    outer loop
      vertex -8.000002e+00 2.000000e+01 2.999994e+00
      vertex -9.999989e+00 2.000000e+01 0.000000e+00
      vertex -9.999989e+00 2.000000e+01 4.499991e+00
    endloop
  endfacet
  facet normal 0.000000e+00 0.000000e+00 1.000000e+00
    outer loop
      vertex -6.499997e+00 1.346515e+01 4.499991e+00
      vertex -6.499997e+00 2.000000e+01 4.499991e+00
      vertex -9.999989e+00 2.000000e+01 4.499991e+00
    endloop
  endfacet
  facet normal 0.000000e+00 1.000000e+00 0.000000e+00
    outer loop
      vertex -8.000002e+00 2.000000e+01 1.499997e+00
      vertex -9.697143e-01 2.000000e+01 0.000000e+00
      vertex -9.999989e+00 2.000000e+01 0.000000e+00
    endloop
  endfacet
  facet normal 0.000000e+00 1.000000e+00 0.000000e+00
    outer loop
      vertex -9.999989e+00 2.000000e+01 0.000000e+00
      vertex -8.000002e+00 2.000000e+01 2.999994e+00
      vertex -8.000002e+00 2.000000e+01 1.499997e+00
    endloop
  endfacet
  facet normal 7.071048e-01 0.000000e+00 -7.071088e-01
    outer loop
      vertex -8.000002e+00 2.000000e+01 2.999994e+00
      vertex -6.499997e+00 2.000000e+01 4.499991e+00
      vertex -8.000002e+00 1.289600e+01 2.999994e+00
    endloop
  endfacet
  facet normal 0.000000e+00 0.000000e+00 1.000000e+00
    outer loop
      vertex -1.250002e+00 1.216506e+01 1.499997e+00
      vertex -6.470475e-01 1.241481e+01 1.499997e+00
      vertex -1.573723e+00 1.573713e+01 1.499997e+00
    endloop
  endfacet
  facet normal 0.000000e+00 0.000000e+00 1.000000e+00
    outer loop
      vertex -1.573723e+00 1.573713e+01 1.499997e+00
      vertex -1.816750e-05 1.250000e+01 1.499997e+00
      vertex 6.470232e-01 1.241481e+01 1.499997e+00
    endloop
  endfacet
  facet normal 0.000000e+00 0.000000e+00 1.000000e+00
    outer loop
      vertex -1.573723e+00 1.573713e+01 1.499997e+00
      vertex 6.470232e-01 1.241481e+01 1.499997e+00
      vertex 2.614866e+00 2.000000e+01 1.499997e+00
    endloop
  endfacet
  facet normal 0.000000e+00 0.000000e+00 1.000000e+00
    outer loop
      vertex 1.250002e+00 1.216506e+01 1.499997e+00
      vertex 2.614866e+00 2.000000e+01 1.499997e+00
      vertex 6.470232e-01 1.241481e+01 1.499997e+00
    endloop
  endfacet
  facet normal 0.000000e+00 0.000000e+00 1.000000e+00
    outer loop
      vertex 2.165063e+00 1.125000e+01 1.499997e+00
      vertex 2.414817e+00 1.064706e+01 1.499997e+00
      vertex 2.614866e+00 2.000000e+01 1.499997e+00
    endloop
  endfacet
  facet normal 0.000000e+00 0.000000e+00 1.000000e+00
    outer loop
      vertex 1.250002e+00 1.216506e+01 1.499997e+00
      vertex 1.767776e+00 1.176778e+01 1.499997e+00
      vertex 2.614866e+00 2.000000e+01 1.499997e+00
    endloop
  endfacet
  facet normal 0.000000e+00 0.000000e+00 1.000000e+00
    outer loop
      vertex 1.767776e+00 1.176778e+01 1.499997e+00
      vertex 2.165063e+00 1.125000e+01 1.499997e+00
      vertex 2.614866e+00 2.000000e+01 1.499997e+00
    endloop
  endfacet
  facet normal 0.000000e+00 0.000000e+00 1.000000e+00
    outer loop
      vertex 2.500011e+00 1.000001e+01 1.499997e+00
      vertex 7.999990e+00 1.158402e+01 1.499997e+00
      vertex 2.414817e+00 1.064706e+01 1.499997e+00
    endloop
  endfacet
  facet normal -6.087471e-01 -7.933643e-01 0.000000e+00
    outer loop
      vertex 1.250002e+00 1.216506e+01 1.499997e+00
      vertex 1.767776e+00 1.176778e+01 0.000000e+00
      vertex 1.767776e+00 1.176778e+01 1.499997e+00
    endloop
  endfacet
  facet normal -7.933643e-01 -6.087471e-01 0.000000e+00
    outer loop
      vertex 1.767776e+00 1.176778e+01 0.000000e+00
      vertex 2.165063e+00 1.125000e+01 1.499997e+00
      vertex 1.767776e+00 1.176778e+01 1.499997e+00
    endloop
  endfacet
  facet normal -7.933643e-01 -6.087471e-01 -0.000000e+00
    outer loop
      vertex 2.165063e+00 1.125000e+01 0.000000e+00
      vertex 2.165063e+00 1.125000e+01 1.499997e+00
      vertex 1.767776e+00 1.176778e+01 0.000000e+00
    endloop
  endfacet
  facet normal -6.087471e-01 -7.933643e-01 0.000000e+00
    outer loop
      vertex 1.250002e+00 1.216506e+01 1.499997e+00
      vertex 1.250002e+00 1.216506e+01 0.000000e+00
      vertex 1.767776e+00 1.176778e+01 0.000000e+00
    endloop
  endfacet
  facet normal -9.914434e-01 1.305371e-01 0.000000e+00
    outer loop
      vertex 2.414817e+00 9.352954e+00 0.000000e+00
      vertex 2.414817e+00 9.352954e+00 1.499997e+00
      vertex 2.500011e+00 1.000001e+01 0.000000e+00
    endloop
  endfacet
  facet normal -9.238755e-01 -3.826933e-01 0.000000e+00
    outer loop
      vertex 2.165063e+00 1.125000e+01 1.499997e+00
      vertex 2.414817e+00 1.064706e+01 0.000000e+00
      vertex 2.414817e+00 1.064706e+01 1.499997e+00
    endloop
  endfacet
  facet normal -9.914434e-01 1.305371e-01 0.000000e+00
    outer loop
      vertex 2.500011e+00 1.000001e+01 1.499997e+00
      vertex 2.500011e+00 1.000001e+01 0.000000e+00
      vertex 2.414817e+00 9.352954e+00 1.499997e+00
    endloop
  endfacet
  facet normal -9.914434e-01 -1.305371e-01 0.000000e+00
    outer loop
      vertex 2.414817e+00 1.064706e+01 1.499997e+00
      vertex 2.414817e+00 1.064706e+01 0.000000e+00
      vertex 2.500011e+00 1.000001e+01 1.499997e+00
    endloop
  endfacet
  facet normal -9.238755e-01 -3.826933e-01 -0.000000e+00
    outer loop
      vertex 2.414817e+00 1.064706e+01 0.000000e+00
      vertex 2.165063e+00 1.125000e+01 1.499997e+00
      vertex 2.165063e+00 1.125000e+01 0.000000e+00
    endloop
  endfacet
  facet normal -9.914434e-01 -1.305371e-01 0.000000e+00
    outer loop
      vertex 2.500011e+00 1.000001e+01 1.499997e+00
      vertex 2.414817e+00 1.064706e+01 0.000000e+00
      vertex 2.500011e+00 1.000001e+01 0.000000e+00
    endloop
  endfacet
  facet normal 3.826708e-01 -9.238847e-01 0.000000e+00
    outer loop
      vertex -1.250002e+00 1.216506e+01 1.499997e+00
      vertex -1.250002e+00 1.216506e+01 0.000000e+00
      vertex -6.470475e-01 1.241481e+01 1.499997e+00
    endloop
  endfacet
  facet normal -1.305395e-01 -9.914431e-01 -0.000000e+00
    outer loop
      vertex 6.470232e-01 1.241481e+01 1.499997e+00
      vertex -1.816750e-05 1.250000e+01 1.499997e+00
      vertex -1.816750e-05 1.250000e+01 0.000000e+00
    endloop
  endfacet
  facet normal 1.305419e-01 -9.914428e-01 0.000000e+00
    outer loop
      vertex -1.816750e-05 1.250000e+01 0.000000e+00
      vertex -1.816750e-05 1.250000e+01 1.499997e+00
      vertex -6.470475e-01 1.241481e+01 1.499997e+00
    endloop
  endfacet
  facet normal 0.000000e+00 0.000000e+00 1.000000e+00
    outer loop
      vertex -6.470475e-01 1.241481e+01 1.499997e+00
      vertex -1.816750e-05 1.250000e+01 1.499997e+00
      vertex -1.573723e+00 1.573713e+01 1.499997e+00
    endloop
  endfacet
  facet normal -3.826577e-01 -9.238902e-01 0.000000e+00
    outer loop
      vertex 6.470232e-01 1.241481e+01 1.499997e+00
      vertex 6.470232e-01 1.241481e+01 0.000000e+00
      vertex 1.250002e+00 1.216506e+01 1.499997e+00
    endloop
  endfacet
  facet normal -3.826577e-01 -9.238902e-01 -0.000000e+00
    outer loop
      vertex 1.250002e+00 1.216506e+01 0.000000e+00
      vertex 1.250002e+00 1.216506e+01 1.499997e+00
      vertex 6.470232e-01 1.241481e+01 0.000000e+00
    endloop
  endfacet
  facet normal -1.305395e-01 -9.914431e-01 -0.000000e+00
    outer loop
      vertex 6.470232e-01 1.241481e+01 0.000000e+00
      vertex 6.470232e-01 1.241481e+01 1.499997e+00
      vertex -1.816750e-05 1.250000e+01 0.000000e+00
    endloop
  endfacet
  facet normal 1.305419e-01 -9.914428e-01 0.000000e+00
    outer loop
      vertex -6.470475e-01 1.241481e+01 1.499997e+00
      vertex -6.470475e-01 1.241481e+01 0.000000e+00
      vertex -1.816750e-05 1.250000e+01 0.000000e+00
    endloop
  endfacet
  facet normal 3.826708e-01 -9.238847e-01 0.000000e+00
    outer loop
      vertex -6.470475e-01 1.241481e+01 1.499997e+00
      vertex -1.250002e+00 1.216506e+01 0.000000e+00
      vertex -6.470475e-01 1.241481e+01 0.000000e+00
    endloop
  endfacet
  facet normal 6.087471e-01 -7.933643e-01 0.000000e+00
    outer loop
      vertex -1.250002e+00 1.216506e+01 1.499997e+00
      vertex -1.767776e+00 1.176778e+01 1.499997e+00
      vertex -1.767776e+00 1.176778e+01 0.000000e+00
    endloop
  endfacet
  facet normal 7.933464e-01 -6.087704e-01 0.000000e+00
    outer loop
      vertex -1.767776e+00 1.176778e+01 0.000000e+00
      vertex -1.767776e+00 1.176778e+01 1.499997e+00
      vertex -2.165087e+00 1.125000e+01 1.499997e+00
    endloop
  endfacet
  facet normal 7.933464e-01 -6.087704e-01 0.000000e+00
    outer loop
      vertex -2.165087e+00 1.125000e+01 1.499997e+00
      vertex -2.165087e+00 1.125000e+01 0.000000e+00
      vertex -1.767776e+00 1.176778e+01 0.000000e+00
    endloop
  endfacet
  facet normal 6.087471e-01 -7.933643e-01 0.000000e+00
    outer loop
      vertex -1.767776e+00 1.176778e+01 0.000000e+00
      vertex -1.250002e+00 1.216506e+01 0.000000e+00
      vertex -1.250002e+00 1.216506e+01 1.499997e+00
    endloop
  endfacet
  facet normal 9.914434e-01 1.305371e-01 0.000000e+00
    outer loop
      vertex -2.500011e+00 1.000001e+01 0.000000e+00
      vertex -2.500011e+00 1.000001e+01 1.499997e+00
      vertex -2.414817e+00 9.352954e+00 1.499997e+00
    endloop
  endfacet
  facet normal 9.914434e-01 -1.305371e-01 0.000000e+00
    outer loop
      vertex -2.500011e+00 1.000001e+01 1.499997e+00
      vertex -2.500011e+00 1.000001e+01 0.000000e+00
      vertex -2.414817e+00 1.064706e+01 1.499997e+00
    endloop
  endfacet
  facet normal 9.238886e-01 -3.826616e-01 0.000000e+00
    outer loop
      vertex -2.414817e+00 1.064706e+01 1.499997e+00
      vertex -2.165087e+00 1.125000e+01 0.000000e+00
      vertex -2.165087e+00 1.125000e+01 1.499997e+00
    endloop
  endfacet
  facet normal 9.238886e-01 -3.826616e-01 0.000000e+00
    outer loop
      vertex -2.414817e+00 1.064706e+01 0.000000e+00
      vertex -2.165087e+00 1.125000e+01 0.000000e+00
      vertex -2.414817e+00 1.064706e+01 1.499997e+00
    endloop
  endfacet
  facet normal 9.914434e-01 1.305371e-01 0.000000e+00
    outer loop
      vertex -2.414817e+00 9.352954e+00 1.499997e+00
      vertex -2.414817e+00 9.352954e+00 0.000000e+00
      vertex -2.500011e+00 1.000001e+01 0.000000e+00
    endloop
  endfacet
  facet normal 9.914434e-01 -1.305371e-01 0.000000e+00
    outer loop
      vertex -2.414817e+00 1.064706e+01 1.499997e+00
      vertex -2.500011e+00 1.000001e+01 0.000000e+00
      vertex -2.414817e+00 1.064706e+01 0.000000e+00
    endloop
  endfacet
  facet normal 0.000000e+00 0.000000e+00 1.000000e+00
    outer loop
      vertex -9.999989e+00 2.000000e+01 4.499991e+00
      vertex -9.999989e+00 9.970867e+00 4.499991e+00
      vertex -6.499997e+00 1.346515e+01 4.499991e+00
    endloop
  endfacet
  facet normal 7.071048e-01 0.000000e+00 -7.071087e-01
    outer loop
      vertex -8.000002e+00 1.289600e+01 2.999994e+00
      vertex -6.499997e+00 2.000000e+01 4.499991e+00
      vertex -6.499997e+00 1.346515e+01 4.499991e+00
    endloop
  endfacet
  facet normal 7.071049e-01 0.000000e+00 -7.071087e-01
    outer loop
      vertex -8.000002e+00 1.289600e+01 2.999994e+00
      vertex -6.499997e+00 1.346515e+01 4.499991e+00
      vertex -6.499997e+00 6.296139e+00 4.499991e+00
    endloop
  endfacet
  facet normal 0.000000e+00 0.000000e+00 1.000000e+00
    outer loop
      vertex -1.573723e+00 1.573713e+01 1.499997e+00
      vertex -8.000002e+00 2.000000e+01 1.499997e+00
      vertex -1.250002e+00 1.216506e+01 1.499997e+00
    endloop
  endfacet
  facet normal 0.000000e+00 0.000000e+00 1.000000e+00
    outer loop
      vertex -3.438871e+00 1.154056e+01 1.499997e+00
      vertex -1.250002e+00 1.216506e+01 1.499997e+00
      vertex -8.000002e+00 2.000000e+01 1.499997e+00
    endloop
  endfacet
  facet normal 1.000000e+00 0.000000e+00 0.000000e+00
    outer loop
      vertex -8.000002e+00 2.000000e+01 2.999994e+00
      vertex -8.000002e+00 1.289600e+01 2.999994e+00
      vertex -8.000002e+00 2.000000e+01 1.499997e+00
    endloop
  endfacet
  facet normal 1.000000e+00 0.000000e+00 0.000000e+00
    outer loop
      vertex -8.000002e+00 1.289600e+01 2.999994e+00
      vertex -8.000002e+00 7.650296e+00 1.499997e+00
      vertex -8.000002e+00 2.000000e+01 1.499997e+00
    endloop
  endfacet
  facet normal 0.000000e+00 0.000000e+00 1.000000e+00
    outer loop
      vertex -3.438871e+00 1.154056e+01 1.499997e+00
      vertex -8.000002e+00 2.000000e+01 1.499997e+00
      vertex -8.000002e+00 7.650296e+00 1.499997e+00
    endloop
  endfacet
  facet normal 0.000000e+00 0.000000e+00 1.000000e+00
    outer loop
      vertex -8.000002e+00 7.650296e+00 1.499997e+00
      vertex -2.414817e+00 9.352954e+00 1.499997e+00
      vertex -2.500011e+00 1.000001e+01 1.499997e+00
    endloop
  endfacet
  facet normal 0.000000e+00 0.000000e+00 1.000000e+00
    outer loop
      vertex 1.250002e+00 7.834951e+00 1.499997e+00
      vertex 2.622872e+00 3.147422e+00 1.499997e+00
      vertex 7.999990e+00 1.158402e+01 1.499997e+00
    endloop
  endfacet
  facet normal 0.000000e+00 0.000000e+00 1.000000e+00
    outer loop
      vertex 2.414817e+00 -1.064704e+01 1.499997e+00
      vertex 7.999990e+00 -6.455408e+00 1.499997e+00
      vertex 2.500011e+00 -1.000001e+01 1.499997e+00
    endloop
  endfacet
  facet normal 1.000000e+00 0.000000e+00 0.000000e+00
    outer loop
      vertex 9.999989e+00 1.890304e+00 4.499991e+00
      vertex 9.999989e+00 -5.949140e+00 4.499991e+00
      vertex 9.999989e+00 4.914308e-01 0.000000e+00
    endloop
  endfacet
  facet normal -7.071077e-01 0.000000e+00 -7.071059e-01
    outer loop
      vertex 7.999990e+00 9.835434e+00 2.999994e+00
      vertex 6.499997e+00 2.592586e+00 4.499991e+00
      vertex 6.499997e+00 7.925715e+00 4.499991e+00
    endloop
  endfacet
  facet normal 0.000000e+00 0.000000e+00 1.000000e+00
    outer loop
      vertex 6.499997e+00 2.592586e+00 4.499991e+00
      vertex 9.999989e+00 9.205167e+00 4.499991e+00
      vertex 6.499997e+00 7.925715e+00 4.499991e+00
    endloop
  endfacet
  facet normal 0.000000e+00 0.000000e+00 1.000000e+00
    outer loop
      vertex 9.999989e+00 9.205167e+00 4.499991e+00
      vertex 6.499997e+00 2.592586e+00 4.499991e+00
      vertex 9.999989e+00 1.890304e+00 4.499991e+00
    endloop
  endfacet
  facet normal 1.000000e+00 0.000000e+00 0.000000e+00
    outer loop
      vertex 9.999989e+00 9.205167e+00 4.499991e+00
      vertex 9.999989e+00 6.203437e+00 0.000000e+00
      vertex 9.999989e+00 1.054573e+01 0.000000e+00
    endloop
  endfacet
  facet normal 1.000000e+00 0.000000e+00 0.000000e+00
    outer loop
      vertex 9.999989e+00 1.890304e+00 4.499991e+00
      vertex 9.999989e+00 4.914308e-01 0.000000e+00
      vertex 9.999989e+00 9.205167e+00 4.499991e+00
    endloop
  endfacet
  facet normal 1.000000e+00 0.000000e+00 0.000000e+00
    outer loop
      vertex 9.999989e+00 6.203437e+00 0.000000e+00
      vertex 9.999989e+00 9.205167e+00 4.499991e+00
      vertex 9.999989e+00 4.914308e-01 0.000000e+00
    endloop
  endfacet
  facet normal 0.000000e+00 0.000000e+00 1.000000e+00
    outer loop
      vertex 7.999990e+00 1.158402e+01 1.499997e+00
      vertex 2.622872e+00 3.147422e+00 1.499997e+00
      vertex 7.999990e+00 3.045151e+00 1.499997e+00
    endloop
  endfacet
  facet normal -1.000000e+00 0.000000e+00 0.000000e+00
    outer loop
      vertex 7.999990e+00 3.045151e+00 1.499997e+00
      vertex 7.999990e+00 -3.062676e-01 2.999994e+00
      vertex 7.999990e+00 9.835434e+00 2.999994e+00
    endloop
  endfacet
  facet normal -1.000000e+00 0.000000e+00 0.000000e+00
    outer loop
      vertex 7.999990e+00 9.835434e+00 2.999994e+00
      vertex 7.999990e+00 1.158402e+01 1.499997e+00
      vertex 7.999990e+00 3.045151e+00 1.499997e+00
    endloop
  endfacet
  facet normal -7.071077e-01 -0.000000e+00 -7.071059e-01
    outer loop
      vertex 6.499997e+00 2.592586e+00 4.499991e+00
      vertex 7.999990e+00 9.835434e+00 2.999994e+00
      vertex 7.999990e+00 -3.062676e-01 2.999994e+00
    endloop
  endfacet
  facet normal -7.071077e-01 0.000000e+00 -7.071059e-01
    outer loop
      vertex 7.999990e+00 -3.062676e-01 2.999994e+00
      vertex 6.499997e+00 -2.944576e+00 4.499991e+00
      vertex 6.499997e+00 2.592586e+00 4.499991e+00
    endloop
  endfacet
  facet normal 0.000000e+00 0.000000e+00 1.000000e+00
    outer loop
      vertex 9.999989e+00 1.890304e+00 4.499991e+00
      vertex 6.499997e+00 -2.944576e+00 4.499991e+00
      vertex 9.999989e+00 -5.949140e+00 4.499991e+00
    endloop
  endfacet
  facet normal 0.000000e+00 0.000000e+00 1.000000e+00
    outer loop
      vertex 6.499997e+00 2.592586e+00 4.499991e+00
      vertex 6.499997e+00 -2.944576e+00 4.499991e+00
      vertex 9.999989e+00 1.890304e+00 4.499991e+00
    endloop
  endfacet
  facet normal 0.000000e+00 0.000000e+00 1.000000e+00
    outer loop
      vertex 3.089134e+00 -1.515423e+00 1.499997e+00
      vertex 7.999990e+00 -6.455408e+00 1.499997e+00
      vertex 7.999990e+00 3.045151e+00 1.499997e+00
    endloop
  endfacet
  facet normal -1.000000e+00 0.000000e+00 0.000000e+00
    outer loop
      vertex 7.999990e+00 -6.455408e+00 1.499997e+00
      vertex 7.999990e+00 -3.062676e-01 2.999994e+00
      vertex 7.999990e+00 3.045151e+00 1.499997e+00
    endloop
  endfacet
  facet normal 1.000000e+00 0.000000e+00 0.000000e+00
    outer loop
      vertex 9.999989e+00 -5.949140e+00 4.499991e+00
      vertex 9.999989e+00 -7.872569e+00 0.000000e+00
      vertex 9.999989e+00 4.914308e-01 0.000000e+00
    endloop
  endfacet
  facet normal -1.000000e+00 0.000000e+00 0.000000e+00
    outer loop
      vertex 7.999990e+00 -6.455408e+00 1.499997e+00
      vertex 7.999990e+00 -8.611986e+00 2.999994e+00
      vertex 7.999990e+00 -3.062676e-01 2.999994e+00
    endloop
  endfacet
  facet normal -7.071077e-01 -0.000000e+00 -7.071059e-01
    outer loop
      vertex 6.499997e+00 -2.944576e+00 4.499991e+00
      vertex 7.999990e+00 -3.062676e-01 2.999994e+00
      vertex 7.999990e+00 -8.611986e+00 2.999994e+00
    endloop
  endfacet
  facet normal 7.071048e-01 0.000000e+00 -7.071087e-01
    outer loop
      vertex -8.000002e+00 6.368010e+00 2.999994e+00
      vertex -6.499997e+00 6.296139e+00 4.499991e+00
      vertex -8.000002e+00 1.180560e+00 2.999994e+00
    endloop
  endfacet
  facet normal 0.000000e+00 0.000000e+00 1.000000e+00
    outer loop
      vertex 7.999990e+00 1.158402e+01 1.499997e+00
      vertex 1.767776e+00 8.232237e+00 1.499997e+00
      vertex 1.250002e+00 7.834951e+00 1.499997e+00
    endloop
  endfacet
  facet normal -9.238755e-01 3.826933e-01 0.000000e+00
    outer loop
      vertex 2.414817e+00 9.352954e+00 1.499997e+00
      vertex 2.414817e+00 9.352954e+00 0.000000e+00
      vertex 2.165063e+00 8.750011e+00 1.499997e+00
    endloop
  endfacet
  facet normal 0.000000e+00 0.000000e+00 1.000000e+00
    outer loop
      vertex 2.500011e+00 1.000001e+01 1.499997e+00
      vertex 2.414817e+00 9.352954e+00 1.499997e+00
      vertex 7.999990e+00 1.158402e+01 1.499997e+00
    endloop
  endfacet
  facet normal 0.000000e+00 0.000000e+00 1.000000e+00
    outer loop
      vertex 2.165063e+00 8.750011e+00 1.499997e+00
      vertex 1.767776e+00 8.232237e+00 1.499997e+00
      vertex 7.999990e+00 1.158402e+01 1.499997e+00
    endloop
  endfacet
  facet normal 0.000000e+00 0.000000e+00 1.000000e+00
    outer loop
      vertex 2.165063e+00 8.750011e+00 1.499997e+00
      vertex 7.999990e+00 1.158402e+01 1.499997e+00
      vertex 2.414817e+00 9.352954e+00 1.499997e+00
    endloop
  endfacet
  facet normal -6.087471e-01 7.933643e-01 0.000000e+00
    outer loop
      vertex 1.250002e+00 7.834951e+00 1.499997e+00
      vertex 1.767776e+00 8.232237e+00 1.499997e+00
      vertex 1.250002e+00 7.834951e+00 0.000000e+00
    endloop
  endfacet
  facet normal -9.238755e-01 3.826933e-01 0.000000e+00
    outer loop
      vertex 2.165063e+00 8.750011e+00 0.000000e+00
      vertex 2.165063e+00 8.750011e+00 1.499997e+00
      vertex 2.414817e+00 9.352954e+00 0.000000e+00
    endloop
  endfacet
  facet normal -7.933643e-01 6.087471e-01 0.000000e+00
    outer loop
      vertex 2.165063e+00 8.750011e+00 1.499997e+00
      vertex 1.767776e+00 8.232237e+00 0.000000e+00
      vertex 1.767776e+00 8.232237e+00 1.499997e+00
    endloop
  endfacet
  facet normal -7.933643e-01 6.087471e-01 0.000000e+00
    outer loop
      vertex 2.165063e+00 8.750011e+00 1.499997e+00
      vertex 2.165063e+00 8.750011e+00 0.000000e+00
      vertex 1.767776e+00 8.232237e+00 0.000000e+00
    endloop
  endfacet
  facet normal -6.087471e-01 7.933643e-01 0.000000e+00
    outer loop
      vertex 1.767776e+00 8.232237e+00 1.499997e+00
      vertex 1.767776e+00 8.232237e+00 0.000000e+00
      vertex 1.250002e+00 7.834951e+00 0.000000e+00
    endloop
  endfacet
  facet normal -3.826894e-01 9.238770e-01 0.000000e+00
    outer loop
      vertex 1.250002e+00 7.834951e+00 0.000000e+00
      vertex 6.470232e-01 7.585184e+00 1.499997e+00
      vertex 1.250002e+00 7.834951e+00 1.499997e+00
    endloop
  endfacet
  facet normal 1.305054e-01 9.914476e-01 0.000000e+00
    outer loop
      vertex -6.470475e-01 7.585184e+00 0.000000e+00
      vertex -1.816750e-05 7.500015e+00 1.499997e+00
      vertex -1.816750e-05 7.500015e+00 0.000000e+00
    endloop
  endfacet
  facet normal 1.305054e-01 9.914476e-01 0.000000e+00
    outer loop
      vertex -1.816750e-05 7.500015e+00 1.499997e+00
      vertex -6.470475e-01 7.585184e+00 0.000000e+00
      vertex -6.470475e-01 7.585184e+00 1.499997e+00
    endloop
  endfacet
  facet normal -1.305030e-01 9.914479e-01 0.000000e+00
    outer loop
      vertex -1.816750e-05 7.500015e+00 0.000000e+00
      vertex 6.470232e-01 7.585184e+00 1.499997e+00
      vertex 6.470232e-01 7.585184e+00 0.000000e+00
    endloop
  endfacet
  facet normal 0.000000e+00 0.000000e+00 1.000000e+00
    outer loop
      vertex -1.250002e+00 7.834951e+00 1.499997e+00
      vertex -1.767776e+00 8.232237e+00 1.499997e+00
      vertex -2.506285e+00 4.546295e+00 1.499997e+00
    endloop
  endfacet
  facet normal 3.827026e-01 9.238716e-01 0.000000e+00
    outer loop
      vertex -6.470475e-01 7.585184e+00 1.499997e+00
      vertex -6.470475e-01 7.585184e+00 0.000000e+00
      vertex -1.250002e+00 7.834951e+00 1.499997e+00
    endloop
  endfacet
  facet normal 0.000000e+00 0.000000e+00 1.000000e+00
    outer loop
      vertex -1.816750e-05 7.500015e+00 1.499997e+00
      vertex -6.470475e-01 7.585184e+00 1.499997e+00
      vertex -2.506285e+00 4.546295e+00 1.499997e+00
    endloop
  endfacet
  facet normal -3.826894e-01 9.238770e-01 0.000000e+00
    outer loop
      vertex 6.470232e-01 7.585184e+00 0.000000e+00
      vertex 6.470232e-01 7.585184e+00 1.499997e+00
      vertex 1.250002e+00 7.834951e+00 0.000000e+00
    endloop
  endfacet
  facet normal 7.933464e-01 6.087704e-01 0.000000e+00
    outer loop
      vertex -1.767776e+00 8.232237e+00 1.499997e+00
      vertex -1.767776e+00 8.232237e+00 0.000000e+00
      vertex -2.165087e+00 8.750011e+00 1.499997e+00
    endloop
  endfacet
  facet normal 7.933464e-01 6.087704e-01 0.000000e+00
    outer loop
      vertex -2.165087e+00 8.750011e+00 0.000000e+00
      vertex -2.165087e+00 8.750011e+00 1.499997e+00
      vertex -1.767776e+00 8.232237e+00 0.000000e+00
    endloop
  endfacet
  facet normal 6.087471e-01 7.933643e-01 0.000000e+00
    outer loop
      vertex -1.767776e+00 8.232237e+00 0.000000e+00
      vertex -1.767776e+00 8.232237e+00 1.499997e+00
      vertex -1.250002e+00 7.834951e+00 1.499997e+00
    endloop
  endfacet
  facet normal 0.000000e+00 0.000000e+00 1.000000e+00
    outer loop
      vertex -2.506285e+00 4.546295e+00 1.499997e+00
      vertex -1.767776e+00 8.232237e+00 1.499997e+00
      vertex -2.165087e+00 8.750011e+00 1.499997e+00
    endloop
  endfacet
  facet normal 9.238886e-01 3.826616e-01 0.000000e+00
    outer loop
      vertex -2.414817e+00 9.352954e+00 0.000000e+00
      vertex -2.414817e+00 9.352954e+00 1.499997e+00
      vertex -2.165087e+00 8.750011e+00 0.000000e+00
    endloop
  endfacet
  facet normal 9.238886e-01 3.826616e-01 0.000000e+00
    outer loop
      vertex -2.165087e+00 8.750011e+00 0.000000e+00
      vertex -2.414817e+00 9.352954e+00 1.499997e+00
      vertex -2.165087e+00 8.750011e+00 1.499997e+00
    endloop
  endfacet
  facet normal 6.087471e-01 7.933643e-01 0.000000e+00
    outer loop
      vertex -1.250002e+00 7.834951e+00 1.499997e+00
      vertex -1.250002e+00 7.834951e+00 0.000000e+00
      vertex -1.767776e+00 8.232237e+00 0.000000e+00
    endloop
  endfacet
  facet normal 3.827026e-01 9.238716e-01 0.000000e+00
    outer loop
      vertex -6.470475e-01 7.585184e+00 0.000000e+00
      vertex -1.250002e+00 7.834951e+00 0.000000e+00
      vertex -1.250002e+00 7.834951e+00 1.499997e+00
    endloop
  endfacet
  facet normal -1.305030e-01 9.914479e-01 0.000000e+00
    outer loop
      vertex 6.470232e-01 7.585184e+00 1.499997e+00
      vertex -1.816750e-05 7.500015e+00 0.000000e+00
      vertex -1.816750e-05 7.500015e+00 1.499997e+00
    endloop
  endfacet
  facet normal 0.000000e+00 0.000000e+00 1.000000e+00
    outer loop
      vertex -2.506285e+00 4.546295e+00 1.499997e+00
      vertex 6.470232e-01 7.585184e+00 1.499997e+00
      vertex -1.816750e-05 7.500015e+00 1.499997e+00
    endloop
  endfacet
  facet normal 0.000000e+00 0.000000e+00 1.000000e+00
    outer loop
      vertex -2.506285e+00 4.546295e+00 1.499997e+00
      vertex -6.470475e-01 7.585184e+00 1.499997e+00
      vertex -1.250002e+00 7.834951e+00 1.499997e+00
    endloop
  endfacet
  facet normal 0.000000e+00 0.000000e+00 1.000000e+00
    outer loop
      vertex -2.506285e+00 4.546295e+00 1.499997e+00
      vertex 2.622872e+00 3.147422e+00 1.499997e+00
      vertex 1.250002e+00 7.834951e+00 1.499997e+00
    endloop
  endfacet
  facet normal 0.000000e+00 0.000000e+00 1.000000e+00
    outer loop
      vertex 1.250002e+00 7.834951e+00 1.499997e+00
      vertex 6.470232e-01 7.585184e+00 1.499997e+00
      vertex -2.506285e+00 4.546295e+00 1.499997e+00
    endloop
  endfacet
  facet normal 0.000000e+00 0.000000e+00 1.000000e+00
    outer loop
      vertex -9.999989e+00 9.970867e+00 4.499991e+00
      vertex -6.499997e+00 6.296139e+00 4.499991e+00
      vertex -6.499997e+00 1.346515e+01 4.499991e+00
    endloop
  endfacet
  facet normal 0.000000e+00 0.000000e+00 1.000000e+00
    outer loop
      vertex -9.999989e+00 3.326287e+00 4.499991e+00
      vertex -6.499997e+00 6.296139e+00 4.499991e+00
      vertex -9.999989e+00 9.970867e+00 4.499991e+00
    endloop
  endfacet
  facet normal 0.000000e+00 0.000000e+00 1.000000e+00
    outer loop
      vertex -9.999989e+00 3.326287e+00 4.499991e+00
      vertex -6.499997e+00 -3.816422e+00 4.499991e+00
      vertex -6.499997e+00 6.296139e+00 4.499991e+00
    endloop
  endfacet
  facet normal 0.000000e+00 0.000000e+00 1.000000e+00
    outer loop
      vertex -8.000002e+00 7.650296e+00 1.499997e+00
      vertex -2.506285e+00 4.546295e+00 1.499997e+00
      vertex -2.165087e+00 8.750011e+00 1.499997e+00
    endloop
  endfacet
  facet normal 0.000000e+00 0.000000e+00 1.000000e+00
    outer loop
      vertex -8.000002e+00 7.650296e+00 1.499997e+00
      vertex -2.165087e+00 8.750011e+00 1.499997e+00
      vertex -2.414817e+00 9.352954e+00 1.499997e+00
    endloop
  endfacet
  facet normal 1.000000e+00 0.000000e+00 0.000000e+00
    outer loop
      vertex -8.000002e+00 6.368010e+00 2.999994e+00
      vertex -8.000002e+00 7.650296e+00 1.499997e+00
      vertex -8.000002e+00 1.289600e+01 2.999994e+00
    endloop
  endfacet
  facet normal 7.071049e-01 0.000000e+00 -7.071087e-01
    outer loop
      vertex -6.499997e+00 6.296139e+00 4.499991e+00
      vertex -8.000002e+00 6.368010e+00 2.999994e+00
      vertex -8.000002e+00 1.289600e+01 2.999994e+00
    endloop
  endfacet
  facet normal 0.000000e+00 0.000000e+00 1.000000e+00
    outer loop
      vertex -2.972572e+00 3.497243e-01 1.499997e+00
      vertex -2.506285e+00 4.546295e+00 1.499997e+00
      vertex -8.000002e+00 7.650296e+00 1.499997e+00
    endloop
  endfacet
  facet normal 0.000000e+00 0.000000e+00 1.000000e+00
    outer loop
      vertex 7.999990e+00 3.045151e+00 1.499997e+00
      vertex 2.622872e+00 3.147422e+00 1.499997e+00
      vertex 3.089134e+00 -1.515423e+00 1.499997e+00
    endloop
  endfacet
  facet normal 0.000000e+00 0.000000e+00 1.000000e+00
    outer loop
      vertex -2.972572e+00 3.497243e-01 1.499997e+00
      vertex 3.089134e+00 -1.515423e+00 1.499997e+00
      vertex 2.622872e+00 3.147422e+00 1.499997e+00
    endloop
  endfacet
  facet normal 0.000000e+00 0.000000e+00 1.000000e+00
    outer loop
      vertex 2.622872e+00 3.147422e+00 1.499997e+00
      vertex -2.506285e+00 4.546295e+00 1.499997e+00
      vertex -2.972572e+00 3.497243e-01 1.499997e+00
    endloop
  endfacet
  facet normal 0.000000e+00 0.000000e+00 1.000000e+00
    outer loop
      vertex 3.089134e+00 -1.515423e+00 1.499997e+00
      vertex -2.972572e+00 3.497243e-01 1.499997e+00
      vertex 7.999990e+00 -6.455408e+00 1.499997e+00
    endloop
  endfacet
  facet normal 0.000000e+00 0.000000e+00 1.000000e+00
    outer loop
      vertex -3.438871e+00 -4.779420e+00 1.499997e+00
      vertex 7.999990e+00 -6.455408e+00 1.499997e+00
      vertex -2.972572e+00 3.497243e-01 1.499997e+00
    endloop
  endfacet
  facet normal 0.000000e+00 0.000000e+00 1.000000e+00
    outer loop
      vertex -2.972572e+00 3.497243e-01 1.499997e+00
      vertex -8.000002e+00 7.650296e+00 1.499997e+00
      vertex -8.000002e+00 -5.871989e+00 1.499997e+00
    endloop
  endfacet
  facet normal 7.071048e-01 0.000000e+00 -7.071087e-01
    outer loop
      vertex -6.499997e+00 -3.816422e+00 4.499991e+00
      vertex -8.000002e+00 1.180560e+00 2.999994e+00
      vertex -6.499997e+00 6.296139e+00 4.499991e+00
    endloop
  endfacet
  facet normal 0.000000e+00 0.000000e+00 1.000000e+00
    outer loop
      vertex -6.499997e+00 -3.816422e+00 4.499991e+00
      vertex -9.999989e+00 3.326287e+00 4.499991e+00
      vertex -9.999989e+00 -2.735431e+00 4.499991e+00
    endloop
  endfacet
  facet normal 7.071048e-01 0.000000e+00 -7.071087e-01
    outer loop
      vertex -8.000002e+00 1.180560e+00 2.999994e+00
      vertex -6.499997e+00 -3.816422e+00 4.499991e+00
      vertex -8.000002e+00 -5.755426e+00 2.999994e+00
    endloop
  endfacet
  facet normal 0.000000e+00 0.000000e+00 1.000000e+00
    outer loop
      vertex -6.499997e+00 -1.153928e+01 4.499991e+00
      vertex -6.499997e+00 -3.816422e+00 4.499991e+00
      vertex -9.999989e+00 -2.735431e+00 4.499991e+00
    endloop
  endfacet
  facet normal 0.000000e+00 0.000000e+00 1.000000e+00
    outer loop
      vertex -6.499997e+00 -1.153928e+01 4.499991e+00
      vertex -9.999989e+00 -2.735431e+00 4.499991e+00
      vertex -9.999989e+00 -6.990283e+00 4.499991e+00
    endloop
  endfacet
  facet normal 1.000000e+00 0.000000e+00 0.000000e+00
    outer loop
      vertex -8.000002e+00 1.180560e+00 2.999994e+00
      vertex -8.000002e+00 -5.871989e+00 1.499997e+00
      vertex -8.000002e+00 7.650296e+00 1.499997e+00
    endloop
  endfacet
  facet normal 1.000000e+00 0.000000e+00 0.000000e+00
    outer loop
      vertex -8.000002e+00 1.180560e+00 2.999994e+00
      vertex -8.000002e+00 7.650296e+00 1.499997e+00
      vertex -8.000002e+00 6.368010e+00 2.999994e+00
    endloop
  endfacet
  facet normal 0.000000e+00 0.000000e+00 1.000000e+00
    outer loop
      vertex -8.000002e+00 -5.871989e+00 1.499997e+00
      vertex -3.438871e+00 -4.779420e+00 1.499997e+00
      vertex -2.972572e+00 3.497243e-01 1.499997e+00
    endloop
  endfacet
  facet normal 1.000000e+00 0.000000e+00 0.000000e+00
    outer loop
      vertex -8.000002e+00 -5.871989e+00 1.499997e+00
      vertex -8.000002e+00 1.180560e+00 2.999994e+00
      vertex -8.000002e+00 -5.755426e+00 2.999994e+00
    endloop
  endfacet
  facet normal 1.000000e+00 0.000000e+00 0.000000e+00
    outer loop
      vertex 9.999989e+00 -1.539142e+01 4.499991e+00
      vertex 9.999989e+00 -1.361369e+01 0.000000e+00
      vertex 9.999989e+00 -5.949140e+00 4.499991e+00
    endloop
  endfacet
  facet normal -7.071077e-01 0.000000e+00 -7.071059e-01
    outer loop
      vertex 7.999990e+00 -8.611986e+00 2.999994e+00
      vertex 6.499997e+00 -1.192058e+01 4.499991e+00
      vertex 6.499997e+00 -2.944576e+00 4.499991e+00
    endloop
  endfacet
  facet normal 1.000000e+00 0.000000e+00 0.000000e+00
    outer loop
      vertex 9.999989e+00 -7.872569e+00 0.000000e+00
      vertex 9.999989e+00 -5.949140e+00 4.499991e+00
      vertex 9.999989e+00 -1.361369e+01 0.000000e+00
    endloop
  endfacet
  facet normal 0.000000e+00 0.000000e+00 1.000000e+00
    outer loop
      vertex 9.999989e+00 -5.949140e+00 4.499991e+00
      vertex 6.499997e+00 -2.944576e+00 4.499991e+00
      vertex 6.499997e+00 -1.192058e+01 4.499991e+00
    endloop
  endfacet
  facet normal 0.000000e+00 0.000000e+00 1.000000e+00
    outer loop
      vertex 6.499997e+00 -1.192058e+01 4.499991e+00
      vertex 9.999989e+00 -1.539142e+01 4.499991e+00
      vertex 9.999989e+00 -5.949140e+00 4.499991e+00
    endloop
  endfacet
  facet normal -1.000000e+00 0.000000e+00 0.000000e+00
    outer loop
      vertex 7.999990e+00 -8.611986e+00 2.999994e+00
      vertex 7.999990e+00 -6.455408e+00 1.499997e+00
      vertex 7.999990e+00 -1.385774e+01 1.499997e+00
    endloop
  endfacet
  facet normal 0.000000e+00 0.000000e+00 1.000000e+00
    outer loop
      vertex 2.414817e+00 -1.064704e+01 1.499997e+00
      vertex 7.999990e+00 -1.385774e+01 1.499997e+00
      vertex 7.999990e+00 -6.455408e+00 1.499997e+00
    endloop
  endfacet
  facet normal -1.000000e+00 0.000000e+00 0.000000e+00
    outer loop
      vertex 7.999990e+00 -1.385774e+01 1.499997e+00
      vertex 7.999990e+00 -1.516912e+01 2.999994e+00
      vertex 7.999990e+00 -8.611986e+00 2.999994e+00
    endloop
  endfacet
  facet normal -7.071077e-01 -0.000000e+00 -7.071059e-01
    outer loop
      vertex 6.499997e+00 -1.192058e+01 4.499991e+00
      vertex 7.999990e+00 -8.611986e+00 2.999994e+00
      vertex 7.999990e+00 -1.516912e+01 2.999994e+00
    endloop
  endfacet
  facet normal 0.000000e+00 -1.000000e+00 0.000000e+00
    outer loop
      vertex 7.999990e+00 -2.000000e+01 2.999994e+00
      vertex 9.999989e+00 -2.000000e+01 0.000000e+00
      vertex 9.999989e+00 -2.000000e+01 4.499991e+00
    endloop
  endfacet
  facet normal -7.071077e-01 -0.000000e+00 -7.071059e-01
    outer loop
      vertex 6.499997e+00 -2.000000e+01 4.499991e+00
      vertex 6.499997e+00 -1.192058e+01 4.499991e+00
      vertex 7.999990e+00 -1.516912e+01 2.999994e+00
    endloop
  endfacet
  facet normal 0.000000e+00 -1.000000e+00 0.000000e+00
    outer loop
      vertex 6.499997e+00 -2.000000e+01 4.499991e+00
      vertex 7.999990e+00 -2.000000e+01 2.999994e+00
      vertex 9.999989e+00 -2.000000e+01 4.499991e+00
    endloop
  endfacet
  facet normal 1.000000e+00 0.000000e+00 0.000000e+00
    outer loop
      vertex 9.999989e+00 -2.000000e+01 4.499991e+00
      vertex 9.999989e+00 -2.000000e+01 0.000000e+00
      vertex 9.999989e+00 -1.539142e+01 4.499991e+00
    endloop
  endfacet
  facet normal 0.000000e+00 -1.000000e+00 0.000000e+00
    outer loop
      vertex 9.999989e+00 -2.000000e+01 0.000000e+00
      vertex 7.999990e+00 -2.000000e+01 2.999994e+00
      vertex 7.999990e+00 -2.000000e+01 1.499997e+00
    endloop
  endfacet
  facet normal 0.000000e+00 0.000000e+00 1.000000e+00
    outer loop
      vertex 9.999989e+00 -1.539142e+01 4.499991e+00
      vertex 6.499997e+00 -1.192058e+01 4.499991e+00
      vertex 6.499997e+00 -2.000000e+01 4.499991e+00
    endloop
  endfacet
  facet normal 0.000000e+00 0.000000e+00 1.000000e+00
    outer loop
      vertex 6.499997e+00 -2.000000e+01 4.499991e+00
      vertex 9.999989e+00 -2.000000e+01 4.499991e+00
      vertex 9.999989e+00 -1.539142e+01 4.499991e+00
    endloop
  endfacet
  facet normal 1.000000e+00 0.000000e+00 0.000000e+00
    outer loop
      vertex 9.999989e+00 -1.539142e+01 4.499991e+00
      vertex 9.999989e+00 -2.000000e+01 0.000000e+00
      vertex 9.999989e+00 -1.361369e+01 0.000000e+00
    endloop
  endfacet
  facet normal 0.000000e+00 0.000000e+00 1.000000e+00
    outer loop
      vertex 7.999990e+00 -2.000000e+01 1.499997e+00
      vertex 7.999990e+00 -1.385774e+01 1.499997e+00
      vertex 3.555433e+00 -1.363886e+01 1.499997e+00
    endloop
  endfacet
  facet normal -1.000000e+00 0.000000e+00 0.000000e+00
    outer loop
      vertex 7.999990e+00 -2.000000e+01 2.999994e+00
      vertex 7.999990e+00 -1.385774e+01 1.499997e+00
      vertex 7.999990e+00 -2.000000e+01 1.499997e+00
    endloop
  endfacet
  facet normal -7.071077e-01 0.000000e+00 -7.071059e-01
    outer loop
      vertex 7.999990e+00 -1.516912e+01 2.999994e+00
      vertex 7.999990e+00 -2.000000e+01 2.999994e+00
      vertex 6.499997e+00 -2.000000e+01 4.499991e+00
    endloop
  endfacet
  facet normal -1.000000e+00 0.000000e+00 0.000000e+00
    outer loop
      vertex 7.999990e+00 -1.385774e+01 1.499997e+00
      vertex 7.999990e+00 -2.000000e+01 2.999994e+00
      vertex 7.999990e+00 -1.516912e+01 2.999994e+00
    endloop
  endfacet
  facet normal 0.000000e+00 -1.000000e+00 0.000000e+00
    outer loop
      vertex 3.160714e+00 -2.000000e+01 0.000000e+00
      vertex 9.999989e+00 -2.000000e+01 0.000000e+00
      vertex 7.999990e+00 -2.000000e+01 1.499997e+00
    endloop
  endfacet
  facet normal 0.000000e+00 0.000000e+00 1.000000e+00
    outer loop
      vertex 1.250002e+00 -1.216506e+01 1.499997e+00
      vertex 3.555433e+00 -1.363886e+01 1.499997e+00
      vertex 1.767776e+00 -1.176775e+01 1.499997e+00
    endloop
  endfacet
  facet normal 0.000000e+00 0.000000e+00 1.000000e+00
    outer loop
      vertex -6.411612e-01 -1.503771e+01 1.499997e+00
      vertex 1.250002e+00 -1.216506e+01 1.499997e+00
      vertex 6.470232e-01 -1.241481e+01 1.499997e+00
    endloop
  endfacet
  facet normal 0.000000e+00 0.000000e+00 1.000000e+00
    outer loop
      vertex 6.470232e-01 -1.241481e+01 1.499997e+00
      vertex -1.816750e-05 -1.250000e+01 1.499997e+00
      vertex -6.411612e-01 -1.503771e+01 1.499997e+00
    endloop
  endfacet
  facet normal 0.000000e+00 0.000000e+00 1.000000e+00
    outer loop
      vertex -6.470475e-01 -1.241481e+01 1.499997e+00
      vertex -1.250002e+00 -1.216506e+01 1.499997e+00
      vertex -6.411612e-01 -1.503771e+01 1.499997e+00
    endloop
  endfacet
  facet normal 0.000000e+00 0.000000e+00 1.000000e+00
    outer loop
      vertex -9.999989e+00 -6.990283e+00 4.499991e+00
      vertex -9.999989e+00 -2.000000e+01 4.499991e+00
      vertex -6.499997e+00 -1.153928e+01 4.499991e+00
    endloop
  endfacet
  facet normal 0.000000e+00 0.000000e+00 1.000000e+00
    outer loop
      vertex -2.165087e+00 -8.749987e+00 1.499997e+00
      vertex -1.767776e+00 -8.232237e+00 1.499997e+00
      vertex -8.000002e+00 -1.114686e+01 1.499997e+00
    endloop
  endfacet
  facet normal 0.000000e+00 0.000000e+00 1.000000e+00
    outer loop
      vertex -2.500011e+00 -1.000001e+01 1.499997e+00
      vertex -8.000002e+00 -1.114686e+01 1.499997e+00
      vertex -2.414817e+00 -1.064704e+01 1.499997e+00
    endloop
  endfacet
  facet normal 0.000000e+00 0.000000e+00 1.000000e+00
    outer loop
      vertex 2.500011e+00 -1.000001e+01 1.499997e+00
      vertex 7.999990e+00 -6.455408e+00 1.499997e+00
      vertex 2.414817e+00 -9.352954e+00 1.499997e+00
    endloop
  endfacet
  facet normal 0.000000e+00 0.000000e+00 1.000000e+00
    outer loop
      vertex 7.999990e+00 -6.455408e+00 1.499997e+00
      vertex 2.165063e+00 -8.749987e+00 1.499997e+00
      vertex 2.414817e+00 -9.352954e+00 1.499997e+00
    endloop
  endfacet
  facet normal -9.238809e-01 -3.826801e-01 0.000000e+00
    outer loop
      vertex 2.414817e+00 -9.352954e+00 1.499997e+00
      vertex 2.165063e+00 -8.749987e+00 0.000000e+00
      vertex 2.414817e+00 -9.352954e+00 0.000000e+00
    endloop
  endfacet
  facet normal 9.238940e-01 -3.826484e-01 0.000000e+00
    outer loop
      vertex -2.414817e+00 -9.352954e+00 1.499997e+00
      vertex -2.165087e+00 -8.749987e+00 0.000000e+00
      vertex -2.165087e+00 -8.749987e+00 1.499997e+00
    endloop
  endfacet
  facet normal 9.238940e-01 -3.826484e-01 0.000000e+00
    outer loop
      vertex -2.414817e+00 -9.352954e+00 1.499997e+00
      vertex -2.414817e+00 -9.352954e+00 0.000000e+00
      vertex -2.165087e+00 -8.749987e+00 0.000000e+00
    endloop
  endfacet
  facet normal -3.826577e-01 9.238902e-01 0.000000e+00
    outer loop
      vertex 6.470232e-01 -1.241481e+01 1.499997e+00
      vertex 1.250002e+00 -1.216506e+01 1.499997e+00
      vertex 1.250002e+00 -1.216506e+01 0.000000e+00
    endloop
  endfacet
  facet normal -7.933506e-01 -6.087650e-01 0.000000e+00
    outer loop
      vertex 1.767776e+00 -8.232237e+00 1.499997e+00
      vertex 2.165063e+00 -8.749987e+00 0.000000e+00
      vertex 2.165063e+00 -8.749987e+00 1.499997e+00
    endloop
  endfacet
  facet normal 0.000000e+00 0.000000e+00 1.000000e+00
    outer loop
      vertex 1.250002e+00 -7.834926e+00 1.499997e+00
      vertex 1.767776e+00 -8.232237e+00 1.499997e+00
      vertex 7.999990e+00 -6.455408e+00 1.499997e+00
    endloop
  endfacet
  facet normal -6.087704e-01 -7.933464e-01 0.000000e+00
    outer loop
      vertex 1.250002e+00 -7.834926e+00 0.000000e+00
      vertex 1.767776e+00 -8.232237e+00 1.499997e+00
      vertex 1.250002e+00 -7.834926e+00 1.499997e+00
    endloop
  endfacet
  facet normal 0.000000e+00 0.000000e+00 1.000000e+00
    outer loop
      vertex 6.470232e-01 -7.585184e+00 1.499997e+00
      vertex 1.250002e+00 -7.834926e+00 1.499997e+00
      vertex 7.999990e+00 -6.455408e+00 1.499997e+00
    endloop
  endfacet
  facet normal 0.000000e+00 0.000000e+00 1.000000e+00
    outer loop
      vertex 7.999990e+00 -6.455408e+00 1.499997e+00
      vertex 1.767776e+00 -8.232237e+00 1.499997e+00
      vertex 2.165063e+00 -8.749987e+00 1.499997e+00
    endloop
  endfacet
  facet normal -9.238809e-01 -3.826801e-01 0.000000e+00
    outer loop
      vertex 2.165063e+00 -8.749987e+00 1.499997e+00
      vertex 2.165063e+00 -8.749987e+00 0.000000e+00
      vertex 2.414817e+00 -9.352954e+00 1.499997e+00
    endloop
  endfacet
  facet normal -6.087704e-01 -7.933464e-01 -0.000000e+00
    outer loop
      vertex 1.767776e+00 -8.232237e+00 0.000000e+00
      vertex 1.767776e+00 -8.232237e+00 1.499997e+00
      vertex 1.250002e+00 -7.834926e+00 0.000000e+00
    endloop
  endfacet
  facet normal -7.933506e-01 -6.087650e-01 -0.000000e+00
    outer loop
      vertex 2.165063e+00 -8.749987e+00 0.000000e+00
      vertex 1.767776e+00 -8.232237e+00 1.499997e+00
      vertex 1.767776e+00 -8.232237e+00 0.000000e+00
    endloop
  endfacet
  facet normal 0.000000e+00 0.000000e+00 1.000000e+00
    outer loop
      vertex -1.250002e+00 -7.834926e+00 1.499997e+00
      vertex -6.470475e-01 -7.585184e+00 1.499997e+00
      vertex -3.438871e+00 -4.779420e+00 1.499997e+00
    endloop
  endfacet
  facet normal 0.000000e+00 0.000000e+00 1.000000e+00
    outer loop
      vertex 7.999990e+00 -6.455408e+00 1.499997e+00
      vertex -3.438871e+00 -4.779420e+00 1.499997e+00
      vertex -1.816750e-05 -7.499990e+00 1.499997e+00
    endloop
  endfacet
  facet normal 0.000000e+00 0.000000e+00 1.000000e+00
    outer loop
      vertex -6.470475e-01 -7.585184e+00 1.499997e+00
      vertex -1.816750e-05 -7.499990e+00 1.499997e+00
      vertex -3.438871e+00 -4.779420e+00 1.499997e+00
    endloop
  endfacet
  facet normal 0.000000e+00 0.000000e+00 1.000000e+00
    outer loop
      vertex -1.767776e+00 -8.232237e+00 1.499997e+00
      vertex -1.250002e+00 -7.834926e+00 1.499997e+00
      vertex -3.438871e+00 -4.779420e+00 1.499997e+00
    endloop
  endfacet
  facet normal -3.826577e-01 -9.238902e-01 0.000000e+00
    outer loop
      vertex 1.250002e+00 -7.834926e+00 1.499997e+00
      vertex 6.470232e-01 -7.585184e+00 1.499997e+00
      vertex 1.250002e+00 -7.834926e+00 0.000000e+00
    endloop
  endfacet
  facet normal 0.000000e+00 0.000000e+00 1.000000e+00
    outer loop
      vertex -1.816750e-05 -7.499990e+00 1.499997e+00
      vertex 6.470232e-01 -7.585184e+00 1.499997e+00
      vertex 7.999990e+00 -6.455408e+00 1.499997e+00
    endloop
  endfacet
  facet normal 1.305419e-01 -9.914428e-01 0.000000e+00
    outer loop
      vertex -1.816750e-05 -7.499990e+00 1.499997e+00
      vertex -6.470475e-01 -7.585184e+00 1.499997e+00
      vertex -6.470475e-01 -7.585184e+00 0.000000e+00
    endloop
  endfacet
  facet normal -1.305395e-01 -9.914431e-01 0.000000e+00
    outer loop
      vertex 6.470232e-01 -7.585184e+00 1.499997e+00
      vertex -1.816750e-05 -7.499990e+00 1.499997e+00
      vertex 6.470232e-01 -7.585184e+00 0.000000e+00
    endloop
  endfacet
  facet normal -1.305395e-01 -9.914431e-01 0.000000e+00
    outer loop
      vertex -1.816750e-05 -7.499990e+00 0.000000e+00
      vertex 6.470232e-01 -7.585184e+00 0.000000e+00
      vertex -1.816750e-05 -7.499990e+00 1.499997e+00
    endloop
  endfacet
  facet normal -3.826577e-01 -9.238902e-01 -0.000000e+00
    outer loop
      vertex 1.250002e+00 -7.834926e+00 0.000000e+00
      vertex 6.470232e-01 -7.585184e+00 1.499997e+00
      vertex 6.470232e-01 -7.585184e+00 0.000000e+00
    endloop
  endfacet
  facet normal 1.305419e-01 -9.914428e-01 0.000000e+00
    outer loop
      vertex -6.470475e-01 -7.585184e+00 0.000000e+00
      vertex -1.816750e-05 -7.499990e+00 0.000000e+00
      vertex -1.816750e-05 -7.499990e+00 1.499997e+00
    endloop
  endfacet
  facet normal 7.933327e-01 -6.087884e-01 0.000000e+00
    outer loop
      vertex -2.165087e+00 -8.749987e+00 0.000000e+00
      vertex -1.767776e+00 -8.232237e+00 0.000000e+00
      vertex -1.767776e+00 -8.232237e+00 1.499997e+00
    endloop
  endfacet
  facet normal 6.087704e-01 -7.933464e-01 0.000000e+00
    outer loop
      vertex -1.767776e+00 -8.232237e+00 1.499997e+00
      vertex -1.767776e+00 -8.232237e+00 0.000000e+00
      vertex -1.250002e+00 -7.834926e+00 1.499997e+00
    endloop
  endfacet
  facet normal 0.000000e+00 0.000000e+00 1.000000e+00
    outer loop
      vertex -2.165087e+00 -8.749987e+00 1.499997e+00
      vertex -8.000002e+00 -1.114686e+01 1.499997e+00
      vertex -2.414817e+00 -9.352954e+00 1.499997e+00
    endloop
  endfacet
  facet normal 7.933327e-01 -6.087884e-01 0.000000e+00
    outer loop
      vertex -2.165087e+00 -8.749987e+00 0.000000e+00
      vertex -1.767776e+00 -8.232237e+00 1.499997e+00
      vertex -2.165087e+00 -8.749987e+00 1.499997e+00
    endloop
  endfacet
  facet normal 3.826708e-01 -9.238847e-01 0.000000e+00
    outer loop
      vertex -1.250002e+00 -7.834926e+00 1.499997e+00
      vertex -6.470475e-01 -7.585184e+00 0.000000e+00
      vertex -6.470475e-01 -7.585184e+00 1.499997e+00
    endloop
  endfacet
  facet normal 3.826708e-01 -9.238847e-01 0.000000e+00
    outer loop
      vertex -6.470475e-01 -7.585184e+00 0.000000e+00
      vertex -1.250002e+00 -7.834926e+00 1.499997e+00
      vertex -1.250002e+00 -7.834926e+00 0.000000e+00
    endloop
  endfacet
  facet normal 6.087704e-01 -7.933464e-01 0.000000e+00
    outer loop
      vertex -1.250002e+00 -7.834926e+00 0.000000e+00
      vertex -1.250002e+00 -7.834926e+00 1.499997e+00
      vertex -1.767776e+00 -8.232237e+00 0.000000e+00
    endloop
  endfacet
  facet normal 0.000000e+00 0.000000e+00 1.000000e+00
    outer loop
      vertex 7.999990e+00 -1.385774e+01 1.499997e+00
      vertex 2.414817e+00 -1.064704e+01 1.499997e+00
      vertex 3.555433e+00 -1.363886e+01 1.499997e+00
    endloop
  endfacet
  facet normal 0.000000e+00 0.000000e+00 1.000000e+00
    outer loop
      vertex 2.414817e+00 -1.064704e+01 1.499997e+00
      vertex 2.165063e+00 -1.125000e+01 1.499997e+00
      vertex 3.555433e+00 -1.363886e+01 1.499997e+00
    endloop
  endfacet
  facet normal -9.238809e-01 3.826801e-01 0.000000e+00
    outer loop
      vertex 2.165063e+00 -1.125000e+01 0.000000e+00
      vertex 2.165063e+00 -1.125000e+01 1.499997e+00
      vertex 2.414817e+00 -1.064704e+01 1.499997e+00
    endloop
  endfacet
  facet normal -9.914428e-01 1.305419e-01 0.000000e+00
    outer loop
      vertex 2.500011e+00 -1.000001e+01 0.000000e+00
      vertex 2.414817e+00 -1.064704e+01 1.499997e+00
      vertex 2.500011e+00 -1.000001e+01 1.499997e+00
    endloop
  endfacet
  facet normal -9.914434e-01 -1.305371e-01 0.000000e+00
    outer loop
      vertex 2.414817e+00 -9.352954e+00 0.000000e+00
      vertex 2.500011e+00 -1.000001e+01 0.000000e+00
      vertex 2.414817e+00 -9.352954e+00 1.499997e+00
    endloop
  endfacet
  facet normal -9.914434e-01 -1.305371e-01 0.000000e+00
    outer loop
      vertex 2.500011e+00 -1.000001e+01 1.499997e+00
      vertex 2.414817e+00 -9.352954e+00 1.499997e+00
      vertex 2.500011e+00 -1.000001e+01 0.000000e+00
    endloop
  endfacet
  facet normal -9.914428e-01 1.305419e-01 0.000000e+00
    outer loop
      vertex 2.414817e+00 -1.064704e+01 0.000000e+00
      vertex 2.414817e+00 -1.064704e+01 1.499997e+00
      vertex 2.500011e+00 -1.000001e+01 0.000000e+00
    endloop
  endfacet
  facet normal -9.238809e-01 3.826801e-01 0.000000e+00
    outer loop
      vertex 2.165063e+00 -1.125000e+01 0.000000e+00
      vertex 2.414817e+00 -1.064704e+01 1.499997e+00
      vertex 2.414817e+00 -1.064704e+01 0.000000e+00
    endloop
  endfacet
  facet normal 0.000000e+00 0.000000e+00 1.000000e+00
    outer loop
      vertex 1.767776e+00 -1.176775e+01 1.499997e+00
      vertex 3.555433e+00 -1.363886e+01 1.499997e+00
      vertex 2.165063e+00 -1.125000e+01 1.499997e+00
    endloop
  endfacet
  facet normal -7.933506e-01 6.087650e-01 0.000000e+00
    outer loop
      vertex 1.767776e+00 -1.176775e+01 0.000000e+00
      vertex 1.767776e+00 -1.176775e+01 1.499997e+00
      vertex 2.165063e+00 -1.125000e+01 1.499997e+00
    endloop
  endfacet
  facet normal -7.933506e-01 6.087650e-01 0.000000e+00
    outer loop
      vertex 1.767776e+00 -1.176775e+01 0.000000e+00
      vertex 2.165063e+00 -1.125000e+01 1.499997e+00
      vertex 2.165063e+00 -1.125000e+01 0.000000e+00
    endloop
  endfacet
  facet normal -6.087704e-01 7.933464e-01 0.000000e+00
    outer loop
      vertex 1.250002e+00 -1.216506e+01 1.499997e+00
      vertex 1.767776e+00 -1.176775e+01 1.499997e+00
      vertex 1.250002e+00 -1.216506e+01 0.000000e+00
    endloop
  endfacet
  facet normal -6.087704e-01 7.933464e-01 0.000000e+00
    outer loop
      vertex 1.250002e+00 -1.216506e+01 0.000000e+00
      vertex 1.767776e+00 -1.176775e+01 1.499997e+00
      vertex 1.767776e+00 -1.176775e+01 0.000000e+00
    endloop
  endfacet
  facet normal 9.914428e-01 1.305419e-01 0.000000e+00
    outer loop
      vertex -2.414817e+00 -1.064704e+01 1.499997e+00
      vertex -2.414817e+00 -1.064704e+01 0.000000e+00
      vertex -2.500011e+00 -1.000001e+01 0.000000e+00
    endloop
  endfacet
  facet normal 9.914434e-01 -1.305371e-01 0.000000e+00
    outer loop
      vertex -2.500011e+00 -1.000001e+01 0.000000e+00
      vertex -2.414817e+00 -9.352954e+00 1.499997e+00
      vertex -2.500011e+00 -1.000001e+01 1.499997e+00
    endloop
  endfacet
  facet normal 0.000000e+00 0.000000e+00 1.000000e+00
    outer loop
      vertex -8.000002e+00 -1.114686e+01 1.499997e+00
      vertex -2.500011e+00 -1.000001e+01 1.499997e+00
      vertex -2.414817e+00 -9.352954e+00 1.499997e+00
    endloop
  endfacet
  facet normal 9.914428e-01 1.305419e-01 0.000000e+00
    outer loop
      vertex -2.500011e+00 -1.000001e+01 0.000000e+00
      vertex -2.500011e+00 -1.000001e+01 1.499997e+00
      vertex -2.414817e+00 -1.064704e+01 1.499997e+00
    endloop
  endfacet
  facet normal 9.914434e-01 -1.305371e-01 0.000000e+00
    outer loop
      vertex -2.414817e+00 -9.352954e+00 0.000000e+00
      vertex -2.414817e+00 -9.352954e+00 1.499997e+00
      vertex -2.500011e+00 -1.000001e+01 0.000000e+00
    endloop
  endfacet
  facet normal 9.238940e-01 3.826484e-01 0.000000e+00
    outer loop
      vertex -2.165087e+00 -1.125000e+01 1.499997e+00
      vertex -2.165087e+00 -1.125000e+01 0.000000e+00
      vertex -2.414817e+00 -1.064704e+01 1.499997e+00
    endloop
  endfacet
  facet normal 9.238940e-01 3.826484e-01 0.000000e+00
    outer loop
      vertex -2.414817e+00 -1.064704e+01 1.499997e+00
      vertex -2.165087e+00 -1.125000e+01 0.000000e+00
      vertex -2.414817e+00 -1.064704e+01 0.000000e+00
    endloop
  endfacet
  facet normal -3.826577e-01 9.238902e-01 0.000000e+00
    outer loop
      vertex 6.470232e-01 -1.241481e+01 1.499997e+00
      vertex 1.250002e+00 -1.216506e+01 0.000000e+00
      vertex 6.470232e-01 -1.241481e+01 0.000000e+00
    endloop
  endfacet
  facet normal -1.305395e-01 9.914431e-01 0.000000e+00
    outer loop
      vertex -1.816750e-05 -1.250000e+01 1.499997e+00
      vertex 6.470232e-01 -1.241481e+01 1.499997e+00
      vertex 6.470232e-01 -1.241481e+01 0.000000e+00
    endloop
  endfacet
  facet normal 1.305419e-01 9.914428e-01 0.000000e+00
    outer loop
      vertex -6.470475e-01 -1.241481e+01 0.000000e+00
      vertex -6.470475e-01 -1.241481e+01 1.499997e+00
      vertex -1.816750e-05 -1.250000e+01 1.499997e+00
    endloop
  endfacet
  facet normal -1.305395e-01 9.914431e-01 0.000000e+00
    outer loop
      vertex 6.470232e-01 -1.241481e+01 0.000000e+00
      vertex -1.816750e-05 -1.250000e+01 0.000000e+00
      vertex -1.816750e-05 -1.250000e+01 1.499997e+00
    endloop
  endfacet
  facet normal 1.305419e-01 9.914428e-01 0.000000e+00
    outer loop
      vertex -1.816750e-05 -1.250000e+01 0.000000e+00
      vertex -6.470475e-01 -1.241481e+01 0.000000e+00
      vertex -1.816750e-05 -1.250000e+01 1.499997e+00
    endloop
  endfacet
  facet normal 3.826708e-01 9.238847e-01 0.000000e+00
    outer loop
      vertex -6.470475e-01 -1.241481e+01 0.000000e+00
      vertex -1.250002e+00 -1.216506e+01 0.000000e+00
      vertex -6.470475e-01 -1.241481e+01 1.499997e+00
    endloop
  endfacet
  facet normal 6.087704e-01 7.933464e-01 0.000000e+00
    outer loop
      vertex -1.250002e+00 -1.216506e+01 0.000000e+00
      vertex -1.767776e+00 -1.176775e+01 0.000000e+00
      vertex -1.767776e+00 -1.176775e+01 1.499997e+00
    endloop
  endfacet
  facet normal 0.000000e+00 0.000000e+00 1.000000e+00
    outer loop
      vertex -1.767776e+00 -1.176775e+01 1.499997e+00
      vertex -8.000002e+00 -1.114686e+01 1.499997e+00
      vertex -1.250002e+00 -1.216506e+01 1.499997e+00
    endloop
  endfacet
  facet normal 6.087704e-01 7.933464e-01 0.000000e+00
    outer loop
      vertex -1.767776e+00 -1.176775e+01 1.499997e+00
      vertex -1.250002e+00 -1.216506e+01 1.499997e+00
      vertex -1.250002e+00 -1.216506e+01 0.000000e+00
    endloop
  endfacet
  facet normal 0.000000e+00 0.000000e+00 1.000000e+00
    outer loop
      vertex -2.165087e+00 -1.125000e+01 1.499997e+00
      vertex -2.414817e+00 -1.064704e+01 1.499997e+00
      vertex -8.000002e+00 -1.114686e+01 1.499997e+00
    endloop
  endfacet
  facet normal 0.000000e+00 0.000000e+00 1.000000e+00
    outer loop
      vertex -1.767776e+00 -1.176775e+01 1.499997e+00
      vertex -2.165087e+00 -1.125000e+01 1.499997e+00
      vertex -8.000002e+00 -1.114686e+01 1.499997e+00
    endloop
  endfacet
  facet normal 3.826708e-01 9.238847e-01 0.000000e+00
    outer loop
      vertex -6.470475e-01 -1.241481e+01 1.499997e+00
      vertex -1.250002e+00 -1.216506e+01 0.000000e+00
      vertex -1.250002e+00 -1.216506e+01 1.499997e+00
    endloop
  endfacet
  facet normal 7.933327e-01 6.087884e-01 0.000000e+00
    outer loop
      vertex -2.165087e+00 -1.125000e+01 1.499997e+00
      vertex -1.767776e+00 -1.176775e+01 0.000000e+00
      vertex -2.165087e+00 -1.125000e+01 0.000000e+00
    endloop
  endfacet
  facet normal 7.933327e-01 6.087884e-01 0.000000e+00
    outer loop
      vertex -1.767776e+00 -1.176775e+01 0.000000e+00
      vertex -2.165087e+00 -1.125000e+01 1.499997e+00
      vertex -1.767776e+00 -1.176775e+01 1.499997e+00
    endloop
  endfacet
  facet normal 0.000000e+00 0.000000e+00 1.000000e+00
    outer loop
      vertex -1.767776e+00 -8.232237e+00 1.499997e+00
      vertex -3.438871e+00 -4.779420e+00 1.499997e+00
      vertex -8.000002e+00 -1.114686e+01 1.499997e+00
    endloop
  endfacet
  facet normal 0.000000e+00 0.000000e+00 1.000000e+00
    outer loop
      vertex -8.000002e+00 -5.871989e+00 1.499997e+00
      vertex -8.000002e+00 -1.114686e+01 1.499997e+00
      vertex -3.438871e+00 -4.779420e+00 1.499997e+00
    endloop
  endfacet
  facet normal 1.000000e+00 0.000000e+00 0.000000e+00
    outer loop
      vertex -8.000002e+00 -5.755426e+00 2.999994e+00
      vertex -8.000002e+00 -1.041830e+01 2.999994e+00
      vertex -8.000002e+00 -5.871989e+00 1.499997e+00
    endloop
  endfacet
  facet normal 7.071048e-01 0.000000e+00 -7.071088e-01
    outer loop
      vertex -8.000002e+00 -1.041830e+01 2.999994e+00
      vertex -6.499997e+00 -3.816422e+00 4.499991e+00
      vertex -6.499997e+00 -1.153928e+01 4.499991e+00
    endloop
  endfacet
  facet normal 7.071048e-01 0.000000e+00 -7.071087e-01
    outer loop
      vertex -8.000002e+00 -5.755426e+00 2.999994e+00
      vertex -6.499997e+00 -3.816422e+00 4.499991e+00
      vertex -8.000002e+00 -1.041830e+01 2.999994e+00
    endloop
  endfacet
  facet normal 1.000000e+00 0.000000e+00 0.000000e+00
    outer loop
      vertex -8.000002e+00 -1.041830e+01 2.999994e+00
      vertex -8.000002e+00 -1.114686e+01 1.499997e+00
      vertex -8.000002e+00 -5.871989e+00 1.499997e+00
    endloop
  endfacet
  facet normal 0.000000e+00 0.000000e+00 1.000000e+00
    outer loop
      vertex -6.411612e-01 -1.503771e+01 1.499997e+00
      vertex 3.555433e+00 -1.363886e+01 1.499997e+00
      vertex 1.250002e+00 -1.216506e+01 1.499997e+00
    endloop
  endfacet
  facet normal 0.000000e+00 0.000000e+00 1.000000e+00
    outer loop
      vertex -1.816750e-05 -1.250000e+01 1.499997e+00
      vertex -6.470475e-01 -1.241481e+01 1.499997e+00
      vertex -6.411612e-01 -1.503771e+01 1.499997e+00
    endloop
  endfacet
  facet normal 0.000000e+00 0.000000e+00 1.000000e+00
    outer loop
      vertex 1.115430e+00 -2.000000e+01 1.499997e+00
      vertex 7.999990e+00 -2.000000e+01 1.499997e+00
      vertex 3.555433e+00 -1.363886e+01 1.499997e+00
    endloop
  endfacet
  facet normal 0.000000e+00 0.000000e+00 1.000000e+00
    outer loop
      vertex -6.411612e-01 -1.503771e+01 1.499997e+00
      vertex 1.115430e+00 -2.000000e+01 1.499997e+00
      vertex 3.555433e+00 -1.363886e+01 1.499997e+00
    endloop
  endfacet
  facet normal 0.000000e+00 -1.000000e+00 0.000000e+00
    outer loop
      vertex -6.499997e+00 -2.000000e+01 4.499991e+00
      vertex -9.999989e+00 -2.000000e+01 4.499991e+00
      vertex -8.000002e+00 -2.000000e+01 2.999994e+00
    endloop
  endfacet
  facet normal 7.071048e-01 0.000000e+00 -7.071087e-01
    outer loop
      vertex -6.499997e+00 -2.000000e+01 4.499991e+00
      vertex -8.000002e+00 -2.000000e+01 2.999994e+00
      vertex -8.000002e+00 -1.041830e+01 2.999994e+00
    endloop
  endfacet
  facet normal 0.000000e+00 0.000000e+00 1.000000e+00
    outer loop
      vertex -6.499997e+00 -1.153928e+01 4.499991e+00
      vertex -9.999989e+00 -2.000000e+01 4.499991e+00
      vertex -6.499997e+00 -2.000000e+01 4.499991e+00
    endloop
  endfacet
  facet normal 7.071048e-01 0.000000e+00 -7.071087e-01
    outer loop
      vertex -6.499997e+00 -2.000000e+01 4.499991e+00
      vertex -8.000002e+00 -1.041830e+01 2.999994e+00
      vertex -6.499997e+00 -1.153928e+01 4.499991e+00
    endloop
  endfacet
  facet normal 0.000000e+00 0.000000e+00 1.000000e+00
    outer loop
      vertex -4.837719e+00 -1.690286e+01 1.499997e+00
      vertex -6.411612e-01 -1.503771e+01 1.499997e+00
      vertex -1.250002e+00 -1.216506e+01 1.499997e+00
    endloop
  endfacet
  facet normal 0.000000e+00 0.000000e+00 1.000000e+00
    outer loop
      vertex -1.250002e+00 -1.216506e+01 1.499997e+00
      vertex -8.000002e+00 -1.114686e+01 1.499997e+00
      vertex -4.837719e+00 -1.690286e+01 1.499997e+00
    endloop
  endfacet
  facet normal 1.000000e+00 0.000000e+00 0.000000e+00
    outer loop
      vertex -8.000002e+00 -2.000000e+01 1.499997e+00
      vertex -8.000002e+00 -1.114686e+01 1.499997e+00
      vertex -8.000002e+00 -1.041830e+01 2.999994e+00
    endloop
  endfacet
  facet normal 0.000000e+00 0.000000e+00 1.000000e+00
    outer loop
      vertex -8.000002e+00 -2.000000e+01 1.499997e+00
      vertex -4.837719e+00 -1.690286e+01 1.499997e+00
      vertex -8.000002e+00 -1.114686e+01 1.499997e+00
    endloop
  endfacet
  facet normal 0.000000e+00 0.000000e+00 1.000000e+00
    outer loop
      vertex -8.000002e+00 -2.000000e+01 1.499997e+00
      vertex 1.115430e+00 -2.000000e+01 1.499997e+00
      vertex -6.411612e-01 -1.503771e+01 1.499997e+00
    endloop
  endfacet
  facet normal 0.000000e+00 0.000000e+00 1.000000e+00
    outer loop
      vertex -6.411612e-01 -1.503771e+01 1.499997e+00
      vertex -4.837719e+00 -1.690286e+01 1.499997e+00
      vertex -8.000002e+00 -2.000000e+01 1.499997e+00
    endloop
  endfacet
  facet normal 1.000000e+00 0.000000e+00 0.000000e+00
    outer loop
      vertex -8.000002e+00 -1.041830e+01 2.999994e+00
      vertex -8.000002e+00 -2.000000e+01 2.999994e+00
      vertex -8.000002e+00 -2.000000e+01 1.499997e+00
    endloop
  endfacet
endsolid Default
